<svg id="b6c819b6-f721-4bbf-96f4-d8363709679d" data-name="Layer 1" xmlns="http://www.w3.org/2000/svg" width="512" height="512" viewBox="0 0 512 512">
  <defs>
    <style>
      .e0dbdef3-85ec-461f-b3da-be6bbe92453f {
        fill: #faf7f5;
      }

      .b0414f4b-6073-4197-a1d1-66219f795473, .e0dbdef3-85ec-461f-b3da-be6bbe92453f, .f95c8325-b6f3-48b9-932b-2c4dc491bcc5 {
        fill-rule: evenodd;
      }

      .b0414f4b-6073-4197-a1d1-66219f795473 {
        fill: #1f84ff;
      }

      .f95c8325-b6f3-48b9-932b-2c4dc491bcc5 {
        fill: #ff9a1f;
      }

      .b9dd7a60-9ce2-43bc-8fa3-5906df33b9ec {
        fill: #1d2c3e;
      }
    </style>
  </defs>
  <g>
    <path class="e0dbdef3-85ec-461f-b3da-be6bbe92453f" d="M291.59,177.47h88.8l70.84,51.84.37-51.84h31.63A18.83,18.83,0,0,0,502,158.68V28.76A18.82,18.82,0,0,0,483.23,10H28.77A18.82,18.82,0,0,0,10,28.76V158.67a18.83,18.83,0,0,0,18.76,18.8H60.4l.34,51.84,70.87-51.84h88.77L256,229.31Z"/>
    <path class="b0414f4b-6073-4197-a1d1-66219f795473" d="M10,502H153.29V469.6A49.33,49.33,0,0,0,111.48,421a44.82,44.82,0,0,1-59.66,0A49.33,49.33,0,0,0,10,469.6V502Z"/>
    <path class="f95c8325-b6f3-48b9-932b-2c4dc491bcc5" d="M81.66,432.35A44.76,44.76,0,1,0,51.81,421,44.66,44.66,0,0,0,81.66,432.35Z"/>
    <path class="f95c8325-b6f3-48b9-932b-2c4dc491bcc5" d="M256,402.19a64.25,64.25,0,1,0-42.75-16.32A64,64,0,0,0,256,402.19Z"/>
    <path class="b0414f4b-6073-4197-a1d1-66219f795473" d="M153.29,502H358.68V455.57a70.76,70.76,0,0,0-59.92-69.7,64.18,64.18,0,0,1-85.52,0,70.76,70.76,0,0,0-60,69.7V502Z"/>
    <path class="f95c8325-b6f3-48b9-932b-2c4dc491bcc5" d="M430.34,432.35A44.77,44.77,0,1,0,400.49,421,44.66,44.66,0,0,0,430.34,432.35Z"/>
    <path class="b0414f4b-6073-4197-a1d1-66219f795473" d="M358.68,502H502V469.6A49.33,49.33,0,0,0,460.16,421a44.83,44.83,0,0,1-59.67,0,49.34,49.34,0,0,0-41.81,48.61V502Z"/>
    <g>
      <path class="b9dd7a60-9ce2-43bc-8fa3-5906df33b9ec" d="M483.23,0H28.77A28.79,28.79,0,0,0,0,28.76V158.67a28.81,28.81,0,0,0,28.76,28.8h21.7l.27,41.91a10,10,0,0,0,15.91,8l68.23-49.91h80.24L247.74,235a10,10,0,0,0,16.49,0l32.62-47.5h80.28l68.19,49.91a10,10,0,0,0,15.91-8l.3-41.91h21.7A28.82,28.82,0,0,0,512,158.67V28.76A28.81,28.81,0,0,0,483.23,0ZM492,158.67a8.79,8.79,0,0,1-8.76,8.8H451.6a10,10,0,0,0-10,9.93l-.23,32.3L386.3,169.4a10,10,0,0,0-5.91-1.93h-88.8a10,10,0,0,0-8.25,4.34L256,211.65l-27.36-39.84a10,10,0,0,0-8.25-4.34H131.61a10,10,0,0,0-5.91,1.93L70.62,209.7l-.22-32.3a10,10,0,0,0-10-9.93H28.77A8.79,8.79,0,0,1,20,158.68V28.76A8.77,8.77,0,0,1,28.77,20H483.23A8.77,8.77,0,0,1,492,28.76Z"/>
      <path class="b9dd7a60-9ce2-43bc-8fa3-5906df33b9ec" d="M307.22,492H163.29V455.57a60.93,60.93,0,0,1,47.23-59,73.94,73.94,0,0,0,90.94,0,60.94,60.94,0,0,1,47.22,59V492h-47.8a10,10,0,0,0,0,20H502a10,10,0,0,0,10-10V469.6a59.64,59.64,0,0,0-34.71-53.82,54.81,54.81,0,1,0-93.91,0,59.5,59.5,0,0,0-19,13.94,81.53,81.53,0,0,0-47.5-49.33,74.21,74.21,0,1,0-121.68,0,81.49,81.49,0,0,0-47.5,49.32,59.62,59.62,0,0,0-19.05-13.93,54.8,54.8,0,1,0-93.9,0A59.62,59.62,0,0,0,0,469.6V502a10,10,0,0,0,10,10H307.22M81.66,352.75a34.8,34.8,0,1,1-34.81,34.82A34.85,34.85,0,0,1,81.66,352.75ZM20,492V469.6a39.46,39.46,0,0,1,29.25-37.88,54.66,54.66,0,0,0,64.78,0,39.46,39.46,0,0,1,29.25,37.88V492ZM201.78,338A54.21,54.21,0,1,1,256,392.19,54.26,54.26,0,0,1,201.78,338Zm228.56,14.76a34.8,34.8,0,1,1-34.82,34.82A34.84,34.84,0,0,1,430.34,352.75ZM368.68,469.6a39.46,39.46,0,0,1,29.25-37.88,54.68,54.68,0,0,0,64.79,0A39.47,39.47,0,0,1,492,469.6V492H368.68Z"/>
      <path class="b9dd7a60-9ce2-43bc-8fa3-5906df33b9ec" d="M449.84,55.81H189.43a10,10,0,0,0,0,20H449.84a10,10,0,0,0,0-20Z"/>
      <path class="b9dd7a60-9ce2-43bc-8fa3-5906df33b9ec" d="M62.13,75.81h74.35a10,10,0,0,0,0-20H62.13a10,10,0,1,0,0,20Z"/>
      <path class="b9dd7a60-9ce2-43bc-8fa3-5906df33b9ec" d="M449.84,111.63H375.52a10,10,0,0,0,0,20h74.32a10,10,0,1,0,0-20Z"/>
      <path class="b9dd7a60-9ce2-43bc-8fa3-5906df33b9ec" d="M322.54,111.63H62.13a10,10,0,1,0,0,20H322.54a10,10,0,0,0,0-20Z"/>
    </g>
  </g>
</svg>
