<?xml version="1.0" encoding="utf-8"?>
<!-- Generator: Adobe Illustrator 25.2.1, SVG Export Plug-In . SVG Version: 6.00 Build 0)  -->
<svg version="1.1" id="Layer_1" xmlns="http://www.w3.org/2000/svg" xmlns:xlink="http://www.w3.org/1999/xlink" x="0px" y="0px" viewBox="0 0 512 512" style="enable-background:new 0 0 512 512;" xml:space="preserve">
	<style type="text/css">
	.st0{fill-rule:evenodd;clip-rule:evenodd;fill:#1F84FF;}
	.st1{fill-rule:evenodd;clip-rule:evenodd;fill:#FF9A1F;}
	.st2{fill-rule:evenodd;clip-rule:evenodd;fill:#FFFFFF;}
	.st3{fill:#1D2C3E;}
</style>
	<g>
		<g>
			<g>
				<path class="st0" d="M146,110c5.5,0,10-4.5,10-10V10L56,110H146z" />
				<path class="st1" d="M156,100c0,5.5-4.5,10-10,10H56v342c0,5.5,4.5,10,10,10h340c5.5,0,10-4.5,10-10V20c0-5.5-4.5-10-10-10H156
				L156,100z" />
			</g>
			<g>
				<path class="st2" d="M276,302h160c11,0,20,9,20,20v160c0,11-9,20-20,20H276c-11,0-20-9-20-20V322C256,311,265,302,276,302z" />
				<path class="st0" d="M381.9,361.2c7.8-7.8,20.5-7.8,28.3,0c7.8,7.8,7.8,20.5,0,28.3l-53.3,53.3c-7.8,7.8-20.5,7.8-28.3,0
				l-26.7-26.7c-7.8-7.8-7.8-20.5,0-28.3c7.8-7.8,20.5-7.8,28.3,0l12.5,12.5L381.9,361.2z" />
			</g>
		</g>
		<g>
			<path class="st3" d="M356,190H161c-5.5,0-10,4.5-10,10s4.5,10,10,10h195c5.5,0,10-4.5,10-10S361.5,190,356,190z" />
			<path class="st3" d="M356,235H116c-5.5,0-10,4.5-10,10s4.5,10,10,10h240c5.5,0,10-4.5,10-10S361.5,235,356,235z" />
			<path class="st3" d="M116,165h240c5.5,0,10-4.5,10-10s-4.5-10-10-10H116c-5.5,0-10,4.5-10,10S110.5,165,116,165z" />
			<path class="st3" d="M216,280H116c-5.5,0-10,4.5-10,10s4.5,10,10,10h100c5.5,0,10-4.5,10-10S221.5,280,216,280z" />
			<path class="st3" d="M176,325h-60c-5.5,0-10,4.5-10,10s4.5,10,10,10h60c5.5,0,10-4.5,10-10S181.5,325,176,325z" />
			<path class="st3" d="M116,210c5.5,0,10-4.5,10-10s-4.5-10-10-10h0c-5.5,0-10,4.5-10,10S110.5,210,116,210z" />
			<path class="st3" d="M396,345.3c-8,0-15.5,3.1-21.2,8.8l-32.1,32.1l-5.5-5.5c-5.7-5.7-13.2-8.8-21.2-8.8s-15.5,3.1-21.2,8.8
			S286,394,286,402s3.1,15.5,8.8,21.2l26.7,26.7c5.8,5.8,13.5,8.8,21.2,8.8c7.7,0,15.4-2.9,21.2-8.8l53.3-53.3
			c11.7-11.7,11.7-30.7,0-42.4C411.5,348.5,404,345.3,396,345.3z M403.1,382.4l-53.3,53.3c-3.9,3.9-10.2,3.9-14.1,0l-26.7-26.7
			c-1.9-1.9-2.9-4.4-2.9-7.1c0-2.7,1-5.2,2.9-7.1s4.4-2.9,7.1-2.9s5.2,1,7.1,2.9l12.5,12.5c1.9,1.9,4.4,2.9,7.1,2.9s5.2-1.1,7.1-2.9
			l39.2-39.2c1.9-1.9,4.4-2.9,7.1-2.9c2.7,0,5.2,1,7.1,2.9C407,372.2,407,378.5,403.1,382.4L403.1,382.4z" />
			<path class="st3" d="M436,292h-10V20c0-11-9-20-20-20H156c-2.7,0-5.2,1.1-7.1,2.9l-100,100c-1.9,1.9-2.9,4.4-2.9,7.1v342
			c0,11,9,20,20,20h180v10c0,16.5,13.5,30,30,30h160c16.5,0,30-13.5,30-30V322C466,305.5,452.5,292,436,292L436,292z M146,34.1V100
			H80.1L146,34.1z M66,452V120h80c11,0,20-9,20-20V20h240v272H276c-16.5,0-30,13.5-30,30v130L66,452z M446,482c0,5.5-4.5,10-10,10
			H276c-5.5,0-10-4.5-10-10V322c0-5.5,4.5-10,10-10h160c5.5,0,10,4.5,10,10V482z" />
		</g>
	</g>
</svg>
