<?xml version="1.0" encoding="utf-8"?>
<!-- Generator: Adobe Illustrator 25.2.1, SVG Export Plug-In . SVG Version: 6.00 Build 0)  -->
<svg version="1.1" id="Layer_1" xmlns="http://www.w3.org/2000/svg" xmlns:xlink="http://www.w3.org/1999/xlink" x="0px" y="0px"
	 viewBox="0 0 511 511" style="enable-background:new 0 0 511 511;" xml:space="preserve">
<style type="text/css">
	.st0{fill:#FFFFFF;}
	.st1{fill:#FF9A1F;}
	.st2{fill:#1F84FF;}
	.st3{fill:#1D2C3E;}
</style>
<path class="st0" d="M294.2,297.1l-78.7,6.9v63.3h79.8v-69.9L294.2,297.1z"/>
<path class="st1" d="M283.7,259.2l-58.3-58.3h0L158.6,247c6,6,61.1,61.1,68.6,68.6c15.6,15.6,40.9,15.6,56.4,0
	C299.3,300.1,299.4,274.8,283.7,259.2z"/>
<path class="st2" d="M415.2,467.1H95.8c0-22,17.9-39.9,39.9-39.9h239.5C397.3,427.2,415.2,445,415.2,467.1z"/>
<path class="st2" d="M361.3,67.9h-95.8l28.2,39.9h67.6c11,0,20-8.9,20-20S372.3,67.9,361.3,67.9z"/>
<path class="st1" d="M295.4,367.3l39.9,59.9H175.7l39.9-59.9H295.4z"/>
<path class="st1" d="M286.6,76.6c-11.7-11.7-30.6-11.7-42.3,0l-71.1,71.1l50,34.6h0l63.4-63.4C298.2,107.4,298.5,88.4,286.6,76.6z"
	/>
<path class="st2" d="M173.2,147.8c27.5-1.7,52.4,20.6,52.4,49.8c0,27.5-22.3,49.9-49.9,49.9c-27.4,0-49.9-22.2-49.9-49.9
	C125.8,170.9,146.8,149.1,173.2,147.8z"/>
<path class="st3" d="M185.6,197.6c0,5.5-4.5,10-10,10s-10-4.5-10-10s4.5-10,10-10S185.6,192.1,185.6,197.6z"/>
<path class="st3" d="M501,457.1h-76.9c-4.6-22.8-24.8-39.9-48.9-39.9h-34.6l-35.3-52.9V287c0-0.4,0-0.8-0.1-1.1
	c-0.4-12.5-5.5-24.7-14.6-33.7l-55.3-55.3c0-3.9-0.5-7.7-1.2-11.4l59.4-59.4c2.5-2.5,4.6-5.3,6.4-8.3h61.2c13,0,24.1-8.3,28.2-20
	h21.7v10c0,3.4,1.8,6.6,4.7,8.5l39.9,25c1.6,1,3.5,1.5,5.3,1.5c1.8,0,3.7-0.5,5.3-1.5l39.9-25c4.7-2.9,6.1-9.1,3.2-13.8
	c-2.9-4.7-9.1-6.1-13.8-3.2L461.1,121l-29.9-18.7V73.5l29.9-18l34.8,20.9c4.7,2.8,10.9,1.3,13.7-3.4c2.8-4.7,1.3-10.9-3.4-13.7
	l-39.9-24c-3.2-1.9-7.1-1.9-10.3,0l-39.9,24c-3,1.8-4.8,5.1-4.8,8.6v10h-21.7c-4.1-11.6-15.2-20-28.2-20h-95.8
	c-10.7,0-20.7,4.2-28.2,11.7l-68.6,68.6c-30,3.5-52.9,28.8-52.9,59.5c0,23.2,13.4,44.2,34,54c0.5,0.9,1.1,1.7,1.8,2.5l54,54v56.2
	l-35.3,52.9h-34.6c-24.1,0-44.3,17.2-48.9,39.9H10c-5.5,0-10,4.5-10,10s4.5,10,10,10h125.8c5.5,0,10-4.5,10-10s-4.5-10-10-10h-28.2
	c4.1-11.6,15.2-20,28.2-20h40h0h159.6c0,0,0,0,0,0c0,0,0,0,0,0h39.9c13,0,24.1,8.3,28.2,20H120.7c-5.5,0-10,4.5-10,10s4.5,10,10,10
	H501c5.5,0,10-4.5,10-10S506.5,457.1,501,457.1z M255.5,337.3c11,0,21.4-3.5,29.9-10v29.9h-59.9v-29.9
	C234.1,333.8,244.5,337.3,255.5,337.3z M276.7,308.6c-5.6,5.7-13.2,8.8-21.2,8.8c-8,0-15.5-3.1-21.2-8.8l-11.7-11.7c0,0,0,0,0,0
	l-39.8-39.8c21.7-2.6,40-16.9,48.2-36.5l45.7,45.7C288.7,278.3,288.1,297.2,276.7,308.6z M371.3,87.8c0,5.5-4.5,10-10,10h-55.9
	c0-7-1.9-13.9-5.4-20h61.3C366.8,77.8,371.3,82.3,371.3,87.8z M251.4,83.7c3.8-3.8,8.8-5.8,14.1-5.8c5.3,0,10.3,2.1,14.1,5.8
	c5.4,5.4,7.3,13.6,4.7,20.8c-1,2.8-2.6,5.3-4.7,7.4l-53.5,53.5c-7.4-11.7-18.7-20.4-31.8-24.7L251.4,83.7z M135.7,197.6
	c0-20.4,15.2-37.2,35.1-39.6c1.7,0.3,3.4,0.2,5-0.3c17.4,0.1,32.6,11.2,37.9,27.8c0,0,0,0,0,0c1.3,3.9,1.9,8,1.9,12.1
	c0,0.9,0,1.7-0.1,2.7c-1.4,20.9-18.9,37.2-39.8,37.2c-4.5,0-8.8-0.7-13-2.2C146.6,229.8,135.7,214.7,135.7,197.6z M220.9,377.3h69.2
	l26.6,39.9H194.3L220.9,377.3z"/>
</svg>
