<svg id="a446a145-a676-4dab-8e8c-baae29e1e725" data-name="Capa 1" xmlns="http://www.w3.org/2000/svg" width="512" height="512" viewBox="0 0 512 512">
  <defs>
    <style>
      .bf69299c-af70-4852-b89d-38ea860cd84e {
        fill: #1f84ff;
      }

      .be534345-4678-4019-9ee7-acc2b5c18947 {
        fill: #fff;
      }

      .a5d8e912-f98e-4d7b-84f5-bcdbac9d4a79 {
        fill: #ff9a1f;
      }

      .a4c8b898-a34d-483e-b881-5f3716de60db, .ae01c200-d9e2-4c20-989e-a3cb2dab7e5f {
        fill: #1d2c3e;
      }

      .a4c8b898-a34d-483e-b881-5f3716de60db {
        font-size: 166.5px;
        font-family: SFCompactRounded-Semibold, SF Compact Rounded;
        font-weight: 600;
      }
    </style>
  </defs>
  <g>
    <path class="bf69299c-af70-4852-b89d-38ea860cd84e" d="M256,398a28.37,28.37,0,0,0,28.37-28.37V273H227.64v96.64A28.37,28.37,0,0,0,256,398Z"/>
    <path class="be534345-4678-4019-9ee7-acc2b5c18947" d="M227.65,273v96.64A28.37,28.37,0,0,0,256,398v66.3a125.65,125.65,0,0,0-72.25-23H57.15v-320H157.72A98.31,98.31,0,0,0,256,217.64V273Z"/>
    <path class="be534345-4678-4019-9ee7-acc2b5c18947" d="M454.89,121.29v320H328.27a125.61,125.61,0,0,0-72.25,23V398a28.36,28.36,0,0,0,28.36-28.36V273H256V217.64a98.31,98.31,0,0,0,98.29-96.35Z"/>
    <path class="bf69299c-af70-4852-b89d-38ea860cd84e" d="M256,464.28V491H10V145.36H57.15v296H183.76a125.82,125.82,0,0,1,72.24,23Z"/>
    <path class="bf69299c-af70-4852-b89d-38ea860cd84e" d="M502,491V145.36H454.86v296H328.25a125,125,0,0,0-72.24,23V491Z"/>
    <circle class="a5d8e912-f98e-4d7b-84f5-bcdbac9d4a79" cx="255.97" cy="119.35" r="98.3"/>
    <g>
      <path class="ae01c200-d9e2-4c20-989e-a3cb2dab7e5f" d="M311,501H502a10,10,0,0,0,10-10V145.36a10,10,0,0,0-10-10H464.89V121.29a10,10,0,0,0-10-10H364a108.32,108.32,0,0,0-216,0H57.15a10,10,0,0,0-10,10v14.06H10a10,10,0,0,0-10,10V491a10,10,0,0,0,10,10H344.06a10,10,0,0,0,0-20H266V469.62a116.09,116.09,0,0,1,62.24-18.31h126.6a9,9,0,0,0,1-.06,10,10,0,0,0,9-9.95V155.36H492V481H311M444.85,431.3H328.27A135.14,135.14,0,0,0,266,446.52V406.67a38.44,38.44,0,0,0,28.36-37V273a10,10,0,0,0-10-10H266v-35.8c50.57-4.74,92.14-45.37,97.65-95.9h81.22ZM274.38,283v86.64a18.37,18.37,0,0,1-36.73,0V283ZM256,31a88.42,88.42,0,0,1,88.32,88.31c0,48.12-40.19,88.31-88.31,88.31s-88.32-40.26-88.32-88.31A88.41,88.41,0,0,1,256,31ZM67.15,131.29h81.2c5.52,50.46,47.15,91.25,97.66,95.9V263H227.65a10,10,0,0,0-10,10v96.64a38.42,38.42,0,0,0,28.37,37v39.87a136.44,136.44,0,0,0-62.25-15.24H67.15ZM20,481V155.35H47.15v286a10,10,0,0,0,10,10H183.76A116.11,116.11,0,0,1,246,469.61V481Z"/>
      <path class="ae01c200-d9e2-4c20-989e-a3cb2dab7e5f" d="M108,201.22h28.38a10,10,0,0,0,0-20H108a10,10,0,0,0,0,20Z"/>
      <path class="ae01c200-d9e2-4c20-989e-a3cb2dab7e5f" d="M108,262.78h72.38a10,10,0,1,0,0-20H108a10,10,0,0,0,0,20Z"/>
      <path class="ae01c200-d9e2-4c20-989e-a3cb2dab7e5f" d="M108,324.34h72.38a10,10,0,0,0,0-20H108a10,10,0,1,0,0,20Z"/>
      <path class="ae01c200-d9e2-4c20-989e-a3cb2dab7e5f" d="M190.33,375.91a10,10,0,0,0-10-10H108a10,10,0,1,0,0,20h72.38A10,10,0,0,0,190.33,375.91Z"/>
      <path class="ae01c200-d9e2-4c20-989e-a3cb2dab7e5f" d="M377.58,201.22H406a10,10,0,0,0,0-20H377.58a10,10,0,0,0,0,20Z"/>
      <path class="ae01c200-d9e2-4c20-989e-a3cb2dab7e5f" d="M406,242.78H333.58a10,10,0,0,0,0,20H406a10,10,0,1,0,0-20Z"/>
      <path class="ae01c200-d9e2-4c20-989e-a3cb2dab7e5f" d="M406,304.34H333.58a10,10,0,0,0,0,20H406a10,10,0,0,0,0-20Z"/>
      <path class="ae01c200-d9e2-4c20-989e-a3cb2dab7e5f" d="M406,365.91H333.58a10,10,0,0,0,0,20H406a10,10,0,0,0,0-20Z"/>
    </g>
  </g>
  <text class="a4c8b898-a34d-483e-b881-5f3716de60db" transform="translate(205.93 172.56)">5</text>
</svg>
