<?xml version="1.0" encoding="utf-8"?>
<!-- Generator: Adobe Illustrator 25.2.1, SVG Export Plug-In . SVG Version: 6.00 Build 0)  -->
<svg version="1.1" id="Layer_1" xmlns="http://www.w3.org/2000/svg" xmlns:xlink="http://www.w3.org/1999/xlink" x="0px" y="0px"
	 viewBox="0 0 512 512" style="enable-background:new 0 0 512 512;" xml:space="preserve">
<style type="text/css">
	.st0{fill:#FFFFFF;}
	.st1{fill:#1F84FF;}
	.st2{fill:#FF9A1F;}
	.st3{fill:#1D2C3E;}
</style>
<g id="XMLID_412_">
	<path id="XMLID_870_" class="st0" d="M105.9,58h300.2v444H105.9L105.9,58z"/>
	<path id="XMLID_869_" class="st1" d="M148,10h216v48H148V10z"/>
	<path id="XMLID_868_" class="st2" d="M10,222h95.9v280H10V222z"/>
	<path id="XMLID_867_" class="st2" d="M502,502h-95.9V222H502V502z"/>
	<path id="XMLID_866_" class="st2" d="M308,136h-30v-30h-44v30h-30v44h30v30h44v-30h30V136z"/>
	<path id="XMLID_502_" class="st1" d="M162,358h188v144H162V358z"/>
	<g id="XMLID_1035_">
		<path id="XMLID_1107_" class="st3" d="M502,212h-85.9V58c0-5.5-4.5-10-10-10H374V10c0-5.5-4.5-10-10-10H148c-5.5,0-10,4.5-10,10
			v38h-32.1c-5.5,0-10,4.5-10,10v154H10c-5.5,0-10,4.5-10,10v280c0,5.5,4.5,10,10,10h492c5.5,0,10-4.5,10-10V222
			C512,216.5,507.5,212,502,212z M20,232h75.9v260H20V232z M115.9,68H211c5.5,0,10-4.5,10-10s-4.5-10-10-10h-53V20h196v28H196.3
			c-5.5,0-10,4.5-10,10s4.5,10,10,10h199.8v424H360V358c0-5.5-4.5-10-10-10H162c-5.5,0-10,4.5-10,10v134h-36.1V68z M172,368h74v124
			h-74V368z M266,492V368h74v124H266z M492,492h-75.9V232H492V492z"/>
		<path id="XMLID_1585_" class="st3" d="M162,320h30.7c5.5,0,10-4.5,10-10s-4.5-10-10-10H162c-5.5,0-10,4.5-10,10S156.5,320,162,320
			z"/>
		<path id="XMLID_1586_" class="st3" d="M271.3,300h-30.7c-5.5,0-10,4.5-10,10s4.5,10,10,10h30.7c5.5,0,10-4.5,10-10
			S276.9,300,271.3,300z"/>
		<path id="XMLID_1587_" class="st3" d="M350,300h-30.7c-5.5,0-10,4.5-10,10s4.5,10,10,10H350c5.5,0,10-4.5,10-10S355.5,300,350,300
			z"/>
		<path id="XMLID_1588_" class="st3" d="M162,268h30.7c5.5,0,10-4.5,10-10s-4.5-10-10-10H162c-5.5,0-10,4.5-10,10
			C152,263.6,156.5,268,162,268z"/>
		<path id="XMLID_1589_" class="st3" d="M271.3,248h-30.7c-5.5,0-10,4.5-10,10s4.5,10,10,10h30.7c5.5,0,10-4.5,10-10
			S276.9,248,271.3,248L271.3,248z"/>
		<path id="XMLID_1593_" class="st3" d="M309.3,258c0,5.5,4.5,10,10,10H350c5.5,0,10-4.5,10-10s-4.5-10-10-10h-30.7
			C313.8,248,309.3,252.5,309.3,258z"/>
		<path id="XMLID_1597_" class="st3" d="M204,190h20v20c0,5.5,4.5,10,10,10h44c5.5,0,10-4.5,10-10v-20h20c5.5,0,10-4.5,10-10v-44
			c0-5.5-4.5-10-10-10h-20v-20c0-5.5-4.5-10-10-10h-44c-5.5,0-10,4.5-10,10v20h-20c-5.5,0-10,4.5-10,10v44
			C194,185.6,198.5,190,204,190z M214,146h20c5.5,0,10-4.5,10-10v-20h24v20c0,5.5,4.5,10,10,10h20v24h-20c-5.5,0-10,4.5-10,10v20
			h-24v-20c0-5.5-4.5-10-10-10h-20V146z"/>
	</g>
</g>
</svg>
