<svg id="Smart_control" height="512" viewBox="0 0 64 64" width="512" xmlns="http://www.w3.org/2000/svg" data-name="Smart control"><path d="m57 58h-34v-25l17-7 17 7z" fill="#d8d7da"/><path d="m19 30 21-8 21 8v6l-21-8-21 8z" fill="#dd5528"/><rect fill="#e9e9ea" height="35" rx="2" width="22" x="7" y="8"/><path d="m11 12h14v25h-14z" fill="#2488ff"/><circle cx="18" cy="21" fill="#ff9811" r="3"/><path d="m15 61-1.855-15.2a2 2 0 0 1 .3-1.467l.712-1.068a5 5 0 0 0 .843-2.779v-.415a5 5 0 0 0 -1.464-3.535l-.536-.536 2.272-3.787a1.811 1.811 0 0 0 -.272-2.213 1.811 1.811 0 0 0 -2.213-.272l-3.117 1.872a1 1 0 0 1 -1.222-.15l-1.155-1.157a1 1 0 0 1 -.293-.707v-11.586l-3.857 9.642a2.016 2.016 0 0 0 -.143.743v10.282a4 4 0 0 0 .8 2.4l.66.879a6.005 6.005 0 0 1 1.118 4.586l-1.578 14.468z" fill="#ffcbbe"/><path d="m19 57h42v4h-42z" fill="#898890"/><path d="m28 43h8v14h-8z" fill="#b39a7c"/><path d="m43 43h10v8h-10z" fill="#46f8ff"/><circle cx="40" cy="36" fill="#46f8ff" r="3"/><g fill="#ff9811"><path d="m44.586 14.586a2 2 0 1 0 2.828 0 2 2 0 0 0 -2.828 0z"/><path d="m50.242 11.757a6 6 0 0 0 -8.484 0l1.414 1.414a4.1 4.1 0 0 1 5.656 0z"/><path d="m53.071 8.929a10 10 0 0 0 -14.142 0l1.414 1.414a8 8 0 0 1 11.314 0z"/><path d="m54.485 7.515 1.415-1.415a14.016 14.016 0 0 0 -19.8 0l1.414 1.414a12.014 12.014 0 0 1 16.971.001z"/></g></svg>