<svg id="b90eb62b-3319-4668-a145-fc353eb74b25" data-name="Capa 1" xmlns="http://www.w3.org/2000/svg" width="512" height="512" viewBox="0 0 512 512">
  <defs>
    <style>
      .ad0ecd8a-1e48-457d-93a7-a81b4a2c50c2 {
        fill: #1f84ff;
      }

      .aec9fe0b-2f7c-472c-b39b-89a948fbb3cd {
        fill: #ff9a1f;
      }

      .b749658d-9ae9-4187-bf1a-528fdf8da769 {
        fill: #eaf0f0;
      }

      .f730be23-34db-43c1-b13c-cbcabd7a6c5b {
        fill: #1d2c3e;
      }
    </style>
  </defs>
  <g>
    <g>
      <path class="ad0ecd8a-1e48-457d-93a7-a81b4a2c50c2" d="M256,450.82V392.87c-1-.63-2.05-1.25-3.08-1.86-35-20.68-76.32-27.78-116.39-21.08L41.41,385.85V420H154C191.38,420,224,432.74,256,450.82Z"/>
      <path class="ad0ecd8a-1e48-457d-93a7-a81b4a2c50c2" d="M256,450.82V392.87c1-.63,2.05-1.25,3.08-1.86,35-20.68,76.32-27.78,116.39-21.08l95.12,15.92V420H358c-37.37,0-70,12.7-102,30.78Z"/>
    </g>
    <path class="aec9fe0b-2f7c-472c-b39b-89a948fbb3cd" d="M331.2,154.81h-.05a90.18,90.18,0,1,0-147.28,4.28c6.89,10.44,23.35,29.19,23.35,66h97.63c0-28.64,9.93-47,26.35-70.24Z"/>
    <path class="ad0ecd8a-1e48-457d-93a7-a81b4a2c50c2" d="M256,225.06H207.19v32.58c0,23.51,20,43.48,43.48,43.48h10.66c23.51,0,43.48-20,43.48-43.48V225.06Z"/>
    <path class="b749658d-9ae9-4187-bf1a-528fdf8da769" d="M256,225.06V169.75A76.15,76.15,0,0,1,270.5,125a75,75,0,0,0,6.6-10.91c7.71-15.56-3.74-33.79-21.11-33.79-17,0-28.67,18.46-21.09,33.78A75.87,75.87,0,0,0,241.49,125l0,0A76.19,76.19,0,0,1,256,169.73v55.33"/>
    <path class="aec9fe0b-2f7c-472c-b39b-89a948fbb3cd" d="M202.33,471.23A38.54,38.54,0,0,1,233,485.87a29.08,29.08,0,0,0,46.1,0,38.52,38.52,0,0,1,30.62-14.64H502V420H358c-37.41,0-69.92,12.66-102,30.78C223.92,432.71,191.42,420,154,420H10v51.19Z"/>
    <g>
      <path class="f730be23-34db-43c1-b13c-cbcabd7a6c5b" d="M178.36,168.71c12,17.08,18.83,35.22,18.83,56.35v32.58c0,29,24.49,53.48,53.48,53.48h10.66c29,0,53.48-24.49,53.48-53.48V225.79c2-27.57,7.81-42.79,25.26-66.35A100.18,100.18,0,1,0,155.82,105C155.82,129,164.79,149.36,178.36,168.71Zm116.45,88.93c0,17.84-15.64,33.48-33.48,33.48H250.67c-17.83,0-33.48-15.64-33.48-33.48V235.06h77.62ZM249.59,119.16a65.57,65.57,0,0,1-5.72-9.48C239.54,101,246.33,90.35,256,90.35s16.5,10.53,12.13,19.34a65.28,65.28,0,0,1-5.73,9.48A86.45,86.45,0,0,0,256,129.43,87.39,87.39,0,0,0,249.59,119.16ZM256,24.78a80.18,80.18,0,0,1,66.82,124.49c-13.65,20.46-25.58,40.7-27.59,65.79H266V169.75a65.68,65.68,0,0,1,12.61-38.83,87.6,87.6,0,0,0,7.47-12.35C296.9,96.7,280.27,70.34,256,70.34s-40.89,26.34-30.07,48.21a86.51,86.51,0,0,0,7.47,12.37A65.76,65.76,0,0,1,246,169.73v45.33H216.83c-1.84-23-11.18-43.72-25-62A80.18,80.18,0,0,1,256,24.78Z"/>
      <path class="f730be23-34db-43c1-b13c-cbcabd7a6c5b" d="M66.21,481.23H202.33A28.64,28.64,0,0,1,225,492,39.07,39.07,0,0,0,287,492a28.64,28.64,0,0,1,22.7-10.74H502a10,10,0,0,0,10-10V420a10,10,0,0,0-10-10H480.59V385.85a10,10,0,0,0-8.35-9.87l-95.12-15.91a184.49,184.49,0,0,0-97.8,10c22.91-29.19,61.14-42.5,97.38-36.1l74.43,13.14a10,10,0,0,0,3.47-19.7l-74.43-13.14c-47.89-8.45-98.75,12.36-124.17,54.49-25.42-42.13-76.28-62.94-124.17-54.49L57.4,327.39a10,10,0,1,0,3.47,19.69L135.3,334c36.19-6.39,74.52,6.88,97.36,36.09a184.51,184.51,0,0,0-97.78-10L39.76,376a10,10,0,0,0-8.35,9.87V410H10A10,10,0,0,0,0,420v51.19a10,10,0,0,0,10,10H70.63a10,10,0,0,0,0-20H20V430H154c35.16,0,67.23,11.58,97.08,29.49,3.75,2.11,7.6,1.26,11.12-.73,30-16.95,60.89-28.76,95.8-28.76H492v31.19H309.67a48.77,48.77,0,0,0-38.55,18.54,19.07,19.07,0,0,1-30.24,0,48.77,48.77,0,0,0-38.55-18.54H66.21M51.41,410V394.31l86.77-14.52c37.55-6.28,75.75.38,107.82,18.76V433.7A191.55,191.55,0,0,0,154,410ZM358,410a191.67,191.67,0,0,0-92,23.66V398.55c32.07-18.38,70.27-25,107.82-18.76l86.77,14.52V410Z"/>
    </g>
  </g>
</svg>
