<?xml version="1.0" encoding="utf-8"?>
<!-- Generator: Adobe Illustrator 25.2.1, SVG Export Plug-In . SVG Version: 6.00 Build 0)  -->
<svg version="1.1" id="Capa_1" xmlns="http://www.w3.org/2000/svg" xmlns:xlink="http://www.w3.org/1999/xlink" x="0px" y="0px"
	 viewBox="0 0 512 512" style="enable-background:new 0 0 512 512;" xml:space="preserve">
<style type="text/css">
	.st0{fill:#1F84FF;}
	.st1{fill:#FF9A1F;}
	.st2{fill:#EAF0F0;}
	.st3{fill:#1D2C3E;}
</style>
<g>
	<g>
		<g>
			<path class="st0" d="M256,450.8v-58c-1-0.6-2-1.3-3.1-1.9c-35-20.7-76.3-27.8-116.4-21.1l-95.1,15.9V420H154
				C191.4,420,224,432.7,256,450.8z"/>
		</g>
		<g>
			<path class="st0" d="M256,450.8v-58c1-0.6,2-1.3,3.1-1.9c35-20.7,76.3-27.8,116.4-21.1l95.1,15.9V420H358
				C320.6,420,288,432.7,256,450.8L256,450.8z"/>
		</g>
	</g>
	<g>
		<path class="st1" d="M331.2,154.8L331.2,154.8c9.4-14.3,15-31.4,15-49.9c0-49.8-40.4-90.2-90.2-90.2s-90.2,40.4-90.2,90.2
			c0,20.3,6.7,39,18,54.1c6.9,10.4,23.4,29.2,23.4,66H256h48.9C304.8,196.4,314.8,178.1,331.2,154.8L331.2,154.8z"/>
	</g>
	<g>
		<path class="st0" d="M256,225.1h-48.8v32.6c0,23.5,20,43.5,43.5,43.5h5.3h5.3c23.5,0,43.5-20,43.5-43.5v-32.6H256z"/>
	</g>
	<g>
		<path class="st2" d="M256,225.1v-55.3c0-16.1,5.1-31.7,14.5-44.7c2.5-3.5,4.7-7.1,6.6-10.9c7.7-15.6-3.7-33.8-21.1-33.8
			c-17,0-28.7,18.5-21.1,33.8c1.9,3.8,4.1,7.4,6.6,10.9l0,0c9.4,13,14.5,28.6,14.5,44.7L256,225.1"/>
	</g>
	<g>
		<path class="st1" d="M202.3,471.2c11.9,0,23.4,5.2,30.6,14.6c5.3,6.9,13.7,11.3,23,11.3s17.7-4.4,23-11.3
			c7.3-9.4,18.7-14.6,30.6-14.6H502V420H358c-37.4,0-69.9,12.7-102,30.8c-32.1-18.1-64.6-30.8-102-30.8H10v51.2H202.3z"/>
	</g>
	<g>
		<path class="st3" d="M178.4,168.7c12,17.1,18.8,35.2,18.8,56.3v32.6c0,29,24.5,53.5,53.5,53.5h10.7c29,0,53.5-24.5,53.5-53.5
			v-31.8c2-27.6,7.8-42.8,25.3-66.4c10.5-16.2,16.1-35.1,16.1-54.5C356.2,49.7,311.2,4.8,256,4.8S155.8,49.7,155.8,105
			C155.8,129,164.8,149.4,178.4,168.7z M294.8,257.6c0,17.8-15.6,33.5-33.5,33.5h-10.7c-17.8,0-33.5-15.6-33.5-33.5v-22.6h77.6
			V257.6z M249.6,119.2c-2.2-3-4.1-6.2-5.7-9.5c-4.3-8.7,2.5-19.3,12.1-19.3c9.8,0,16.5,10.5,12.1,19.3c-1.6,3.3-3.6,6.5-5.7,9.5
			c-2.4,3.3-4.5,6.7-6.4,10.3C254.1,125.9,252,122.5,249.6,119.2z M256,24.8c44.2,0,80.2,36,80.2,80.2c0,15.8-4.6,31.2-13.4,44.3
			c-13.6,20.5-25.6,40.7-27.6,65.8H266v-45.3c0-14,4.4-27.5,12.6-38.8c2.8-3.9,5.3-8,7.5-12.3c10.8-21.9-5.8-48.2-30.1-48.2
			c-24.3,0-40.9,26.3-30.1,48.2c2.1,4.3,4.6,8.5,7.5,12.4c8.2,11.4,12.6,24.8,12.6,38.8v45.3h-29.2c-1.8-23-11.2-43.7-25-62
			c-10.5-14-16-30.6-16-48.1C175.8,60.7,211.8,24.8,256,24.8L256,24.8z"/>
		<path class="st3" d="M66.2,481.2h136.1c9,0,17.5,4,22.7,10.7c7.5,9.7,18.8,15.2,31,15.2s23.5-5.6,31-15.2
			c5.2-6.7,13.7-10.7,22.7-10.7H502c5.5,0,10-4.5,10-10V420c0-5.5-4.5-10-10-10h0h-21.4v-24.2c0-4.9-3.5-9.1-8.4-9.9l-95.1-15.9
			c-33.4-5.6-67.2-2-97.8,10c22.9-29.2,61.1-42.5,97.4-36.1l74.4,13.1c5.4,1,10.6-2.7,11.6-8.1c1-5.4-2.7-10.6-8.1-11.6l-74.4-13.1
			c-47.9-8.5-98.8,12.4-124.2,54.5c-25.4-42.1-76.3-62.9-124.2-54.5l-74.4,13.1c-5.4,1-9.1,6.1-8.1,11.6c1,5.4,6.1,9.1,11.6,8.1
			l74.4-13.1c36.2-6.4,74.5,6.9,97.4,36.1c-30.6-12-64.4-15.6-97.8-10L39.8,376c-4.8,0.8-8.4,5-8.4,9.9V410H10c-5.5,0-10,4.5-10,10
			v51.2c0,5.5,4.5,10,10,10h60.6c5.5,0,10-4.5,10-10s-4.5-10-10-10H20V430h134c35.2,0,67.2,11.6,97.1,29.5c3.7,2.1,7.6,1.3,11.1-0.7
			c30-17,60.9-28.8,95.8-28.8h134v31.2H309.7c-15.2,0-29.6,6.9-38.5,18.5c-3.6,4.7-9.2,7.5-15.1,7.5s-11.5-2.7-15.1-7.5
			c-8.9-11.6-23.4-18.5-38.5-18.5H66.2 M51.4,410v-15.7l86.8-14.5c37.5-6.3,75.8,0.4,107.8,18.8v35.2c-28-15.4-60-23.7-92-23.7
			L51.4,410z M358,410c-32,0-64,8.2-92,23.7v-35.2c32.1-18.4,70.3-25,107.8-18.8l86.8,14.5V410L358,410z"/>
	</g>
</g>
</svg>
