<?xml version="1.0" encoding="utf-8"?>
<!-- Generator: Adobe Illustrator 25.2.1, SVG Export Plug-In . SVG Version: 6.00 Build 0)  -->
<svg version="1.1" id="Capa_1" xmlns="http://www.w3.org/2000/svg" xmlns:xlink="http://www.w3.org/1999/xlink" x="0px" y="0px"
	 viewBox="0 0 512 512" style="enable-background:new 0 0 512 512;" xml:space="preserve">
<style type="text/css">
	.st0{fill-rule:evenodd;clip-rule:evenodd;fill:#1F84FF;}
	.st1{fill-rule:evenodd;clip-rule:evenodd;fill:#FF9A1F;}
	.st2{fill-rule:evenodd;clip-rule:evenodd;fill:#FFFFFF;}
	.st3{fill:#1D2C3E;}
</style>
<g>
	<g>
		<path class="st0" d="M130.6,198.8c-33.2-1.6-64,20.2-73.3,53.5L12.6,411.1c-10.7,38.3,12.7,78.2,51.1,88.5c6,1.6,12,2.4,17.9,2.4
			h0.2c31.8-0.1,59.9-22.5,70.4-53.5c2-5.8,3.6-11.6,5.3-17.1c-14.9-4.2-25.8-17.9-25.8-34.1c0-19.6,15.8-35.4,35.4-35.4
			s35.4,15.8,35.4,35.4H256h53.4c0-19.6,15.9-35.4,35.4-35.4s35.4,15.8,35.4,35.4c0,16.2-10.9,29.9-25.8,34.1
			c1.7,5.5,3.3,11.3,5.3,17.1c10.5,31,38.6,53.4,70.4,53.5h0.2c5.9,0,11.8-0.8,17.9-2.4c38.4-10.3,61.8-50.2,51.1-88.5l-44.6-158.8
			c-9.3-33.2-40.1-55.1-73.3-53.5h-22.5l-20,56H173.1l-20-56L130.6,198.8z"/>
	</g>
	<g>
		<path class="st1" d="M256,198.8H153.1l20,56h165.8l20-56H256z"/>
	</g>
	<g>
		<path class="st2" d="M202.6,397.3c0-19.6-15.9-35.4-35.4-35.4s-35.4,15.8-35.4,35.4c0,16.2,10.9,29.9,25.8,34.1
			c3.1,0.9,6.3,1.3,9.6,1.3C186.7,432.8,202.6,416.9,202.6,397.3z"/>
	</g>
	<g>
		<path class="st2" d="M344.9,361.9c-19.6,0-35.4,15.8-35.4,35.4s15.9,35.4,35.4,35.4c3.3,0,6.6-0.5,9.6-1.3
			c14.9-4.2,25.8-17.9,25.8-34.1C380.3,377.8,364.4,361.9,344.9,361.9z"/>
	</g>
	<g>
		<path class="st3" d="M245.9,143.1c0,5.5,4.5,10,10,10h0.1c5.5,0,10-4.5,10-10s-4.5-10-10-10C250.4,133.1,245.9,137.6,245.9,143.1
			L245.9,143.1z"/>
		<path class="st3" d="M168.9,56c48-48,126.2-48,174.2,0c4.1,4.1,11,3.8,14.7-0.6c3.3-3.9,3-9.9-0.6-13.5
			C301.4-14,210.6-14,154.7,41.9c-3.9,3.9-3.9,10.2,0,14.1C158.6,59.9,165,59.9,168.9,56L168.9,56z"/>
		<path class="st3" d="M320.5,88.6c3.9,0,7.7-2.5,9.2-6.1c1.5-3.7,0.7-8.1-2.1-11c-39.5-39.5-103.7-39.5-143.1,0
			c-3.9,3.9-3.9,10.2,0,14.1c3.9,3.9,10.2,3.9,14.1,0c31.7-31.7,83.2-31.7,114.8,0C315.4,87.7,317.9,88.6,320.5,88.6z"/>
		<path class="st3" d="M297.9,115.4c3.9-3.9,3.9-10.2,0-14.1c-11.2-11.2-26-17.3-41.9-17.3c-15.8,0-30.7,6.2-41.8,17.4
			c-3.6,3.6-3.9,9.6-0.6,13.5c3.7,4.4,10.6,4.7,14.7,0.6c7.4-7.4,17.2-11.5,27.7-11.5c10.5,0,20.3,4.1,27.7,11.5
			C287.6,119.3,293.9,119.3,297.9,115.4z"/>
		<path class="st3" d="M142.4,299.1H125v-17.4c0-5.5-4.5-10-10-10c-5.5,0-10,4.5-10,10v17.4H87.7c-5.5,0-10,4.5-10,10
			c0,5.5,4.5,10,10,10H105v17.4c0,5.5,4.5,10,10,10c5.5,0,10-4.5,10-10v-17.4h17.4c5.5,0,10-4.5,10-10
			C152.4,303.6,147.9,299.1,142.4,299.1z"/>
		<path class="st3" d="M509,408.4l-44.6-158.8c-5.1-18.1-16.3-34.2-31.5-45.2c-15-10.9-33.4-16.4-51.7-15.6H130.8
			c-18.3-0.8-36.7,4.7-51.7,15.6c-15.2,11-26.4,27-31.5,45.2L3,408.4c-5.8,20.8-3.1,42.8,7.8,61.9c11,19.4,28.9,33.2,50.4,39
			c6.8,1.8,13.7,2.7,20.5,2.7c14.4,0,28.6-4,41.4-11.7c18-10.9,31.7-28.1,38.7-48.6c1-3,2-6.1,2.9-9.1c0.9,0,1.7,0.1,2.6,0.1
			c21.6,0,39.7-15.2,44.3-35.4h89.1c4.6,20.3,22.7,35.4,44.3,35.4c0.9,0,1.7,0,2.6-0.1c0.9,3,1.9,6,2.9,9
			c6.9,20.5,20.7,37.7,38.7,48.6c18.9,11.4,40.9,14.6,61.9,8.9c21.4-5.7,39.3-19.6,50.4-39C512.1,451.2,514.8,429.2,509,408.4
			L509,408.4z M167.1,422.8c-14,0-25.4-11.4-25.4-25.4c0-14,11.4-25.4,25.4-25.4c14,0,25.4,11.4,25.4,25.4
			C192.6,411.4,181.2,422.8,167.1,422.8z M319.4,397.3c0-14,11.4-25.4,25.4-25.4c14,0,25.4,11.4,25.4,25.4c0,14-11.4,25.4-25.4,25.4
			C330.8,422.8,319.4,411.4,319.4,397.3z M483.9,460.4c-8.4,14.7-21.9,25.2-38.2,29.6c-32.1,8.6-64.9-10.6-76.4-44.6
			c-0.9-2.7-1.8-5.4-2.6-8.1c14-7.7,23.6-22.7,23.6-39.8c0-25-20.4-45.4-45.4-45.4c-21.6,0-39.7,15.2-44.3,35.4h-89.1
			c-4.6-20.2-22.7-35.4-44.3-35.4c-25,0-45.4,20.4-45.4,45.4c0,17.1,9.5,32.1,23.6,39.8c-0.8,2.7-1.7,5.5-2.6,8.2
			c-11.5,34-44.4,53.2-76.4,44.6c-16.2-4.4-29.8-14.9-38.2-29.6c-8.2-14.4-10.3-30.9-5.9-46.6L66.9,255
			c7.9-28.1,34.5-47.6,63.2-46.2c0.2,0,0.3,0,0.5,0H146l17.6,49.4c1.4,4,5.2,6.6,9.4,6.6h38c5.5,0,10-4.5,10-10c0-5.5-4.5-10-10-10
			h-31l-12.9-36h177.5l-12.9,36H202.6c-5.5,0-10,4.5-10,10c0,5.5,4.5,10,10,10h136.3c4.2,0,8-2.7,9.4-6.6l17.6-49.4h15.5
			c0.2,0,0.3,0,0.5,0c28.7-1.4,55.3,18,63.2,46.2l44.6,158.8C494.1,429.5,492,446,483.9,460.4L483.9,460.4z"/>
		<path class="st3" d="M394.1,267.8c-5.5,0-10,4.5-10,10c0,5.5,4.5,10,10,10h0.1c5.5,0,10-4.5,10-10
			C404.2,272.3,399.6,267.8,394.1,267.8L394.1,267.8z"/>
		<path class="st3" d="M394.1,330.4c-5.5,0-10,4.5-10,10c0,5.5,4.5,10,10,10h0.1c5.5,0,10-4.5,10-10
			C404.2,334.9,399.6,330.4,394.1,330.4L394.1,330.4z"/>
		<path class="st3" d="M362.8,299.1c-5.5,0-10,4.5-10,10s4.5,10,10,10c5.5,0,10-4.5,10-10v-0.1C372.8,303.6,368.4,299.1,362.8,299.1
			z"/>
		<path class="st3" d="M425.5,299.1c-5.5,0-10,4.5-10,10s4.5,10,10,10s10-4.5,10-10v-0.1C435.5,303.6,431,299.1,425.5,299.1z"/>
		<path class="st3" d="M219.2,316.5h-14.5c-5.5,0-10,4.5-10,10c0,5.5,4.5,10,10,10h14.5c5.5,0,10-4.5,10-10S224.7,316.5,219.2,316.5
			z"/>
		<path class="st3" d="M307.3,316.5h-14.5c-5.5,0-10,4.5-10,10c0,5.5,4.5,10,10,10h14.5c5.5,0,10-4.5,10-10S312.9,316.5,307.3,316.5
			z"/>
	</g>
</g>
</svg>
