<svg id="bce93ff3-bcb1-4669-8709-12de8d984806" data-name="Layer 1" xmlns="http://www.w3.org/2000/svg" width="512" height="512" viewBox="0 0 512 512">
  <defs>
    <style>
      .aeeb843f-c775-4881-a731-fe20244a495f {
        fill: #1d2c3e;
      }

      .b4a0df7f-e1d3-42ed-ad1a-e25b525fd6e7 {
        fill: #1f84ff;
      }

      .bbeebd97-092e-44b4-8b1a-d7f2865a18ee {
        fill: #ff9a1f;
      }

      .af19dd33-9c26-4ca9-8e12-f96706c395d9 {
        fill: #fff;
      }
    </style>
  </defs>
  <g>
    <path class="aeeb843f-c775-4881-a731-fe20244a495f" d="M374.12,0H137.88A137.88,137.88,0,0,0,0,137.88V374.12A137.88,137.88,0,0,0,137.88,512H374.12A137.88,137.88,0,0,0,512,374.12V137.88A137.88,137.88,0,0,0,374.12,0Zm64.74,146.29V365.71H365.71v73.15H146.29a73.15,73.15,0,0,1-73.15-73.15h0V146.29h73.15V73.14H365.71a73.15,73.15,0,0,1,73.15,73.15Z"/>
    <g>
      <path class="b4a0df7f-e1d3-42ed-ad1a-e25b525fd6e7" d="M219.43,365.71h-62.7a10.43,10.43,0,0,1-10.44-10.44v-209H73.14V365.71h0a73.15,73.15,0,0,0,73.15,73.15H365.71V365.71H219.43Z"/>
      <path class="bbeebd97-092e-44b4-8b1a-d7f2865a18ee" d="M365.71,73.14H146.29v73.15h209a10.43,10.43,0,0,1,10.44,10.44v62.7H219.43v73.14H365.71v73.14h73.15V146.29h0A73.15,73.15,0,0,0,365.71,73.14Z"/>
    </g>
    <path class="af19dd33-9c26-4ca9-8e12-f96706c395d9" d="M292.57,219.43h73.14v-62.7a10.43,10.43,0,0,0-10.44-10.44h-209v209a10.43,10.43,0,0,0,10.44,10.44h209V292.57H219.43V219.43Z"/>
  </g>
</svg>
