<svg id="af0d0903-e64d-461c-a128-5889d9b4c10c" data-name="Layer 1" xmlns="http://www.w3.org/2000/svg" width="512" height="512" viewBox="0 0 512 512">
  <defs>
    <style>
      .fb6c433c-f51b-4ea3-b2c3-efa8ac8f949e {
        fill: #fff;
      }

      .b8bdca2c-4c8c-49d0-be03-056b744b4874 {
        fill: #1f84ff;
      }

      .ad42a1cc-8d66-4fa7-a543-acdc64ae58c5 {
        fill: #ff9a1f;
      }

      .a45522db-a162-4671-9626-23633aada948 {
        fill: #1d2c3e;
      }
    </style>
  </defs>
  <g>
    <path class="fb6c433c-f51b-4ea3-b2c3-efa8ac8f949e" d="M374.12,0H137.88A137.88,137.88,0,0,0,0,137.88V374.12A137.88,137.88,0,0,0,137.88,512H374.12A137.88,137.88,0,0,0,512,374.12V137.88A137.88,137.88,0,0,0,374.12,0Zm64.74,146.29V365.71H365.71v73.15H146.29a73.15,73.15,0,0,1-73.15-73.15h0V146.29h73.15V73.14H365.71a73.15,73.15,0,0,1,73.15,73.15Z"/>
    <g>
      <path class="b8bdca2c-4c8c-49d0-be03-056b744b4874" d="M219.43,365.71h-62.7a10.43,10.43,0,0,1-10.44-10.44v-209H73.14V365.71h0a73.15,73.15,0,0,0,73.15,73.15H365.71V365.71H219.43Z"/>
      <path class="ad42a1cc-8d66-4fa7-a543-acdc64ae58c5" d="M365.71,73.14H146.29v73.15h209a10.43,10.43,0,0,1,10.44,10.44v62.7H219.43v73.14H365.71v73.14h73.15V146.29h0A73.15,73.15,0,0,0,365.71,73.14Z"/>
    </g>
    <path class="a45522db-a162-4671-9626-23633aada948" d="M292.57,219.43h73.14v-62.7a10.43,10.43,0,0,0-10.44-10.44h-209v209a10.43,10.43,0,0,0,10.44,10.44h209V292.57H219.43V219.43Z"/>
  </g>
</svg>
