<svg id="color" enable-background="new 0 0 24 24" height="512" viewBox="0 0 24 24" width="512" xmlns="http://www.w3.org/2000/svg"><path d="m22.25 0h-5.5c-.965 0-1.75.785-1.75 1.75v5.5c0 .965.785 1.75 1.75 1.75h5.5c.965 0 1.75-.785 1.75-1.75v-5.5c0-.965-.785-1.75-1.75-1.75z" fill="#00bcd4"/><path d="m16.75 24h5.5c.965 0 1.75-.785 1.75-1.75v-5.5c0-.965-.785-1.75-1.75-1.75h-5.5c-.965 0-1.75.785-1.75 1.75v5.5c0 .965.785 1.75 1.75 1.75z" fill="#00bcd4"/><path d="m19.5.001h-2.822c-.932.038-1.678.808-1.678 1.749v5.5c0 .965.785 1.75 1.75 1.75h2.75z" fill="#00a4b9"/><path d="m19.5 15h-2.75c-.965 0-1.75.785-1.75 1.75v5.5c0 .965.785 1.75 1.75 1.75h2.75z" fill="#00a4b9"/><path d="m7.25 0h-5.5c-.965 0-1.75.785-1.75 1.75v5.5c0 .965.785 1.75 1.75 1.75h5.5c.965 0 1.75-.785 1.75-1.75v-5.5c0-.965-.785-1.75-1.75-1.75z" fill="#00bcd4"/><path d="m1.75 24h5.5c.965 0 1.75-.785 1.75-1.75v-5.5c0-.965-.785-1.75-1.75-1.75h-5.5c-.965 0-1.75.785-1.75 1.75v5.5c0 .965.785 1.75 1.75 1.75z" fill="#00bcd4"/><path d="m4.5.001h-2.822c-.932.038-1.678.808-1.678 1.749v5.5c0 .965.785 1.75 1.75 1.75h2.75z" fill="#00a4b9"/><path d="m4.5 15h-2.75c-.965 0-1.75.785-1.75 1.75v5.5c0 .965.785 1.75 1.75 1.75h2.75z" fill="#00a4b9"/><path d="m15 3.75h-10.5c-.414 0-.75.336-.75.75s.336.75.75.75h10.5z" fill="#607d8b"/><path d="m19.5 18.75h-10.5v1.5h10.5c.414 0 .75-.336.75-.75s-.336-.75-.75-.75z" fill="#607d8b"/><path d="m12.001 3.75h-7.501c-.414 0-.75.336-.75.75s.336.75.75.75h7.501z" fill="#546d79"/><path d="m12.001 18.75h-3.001v1.5h3.001z" fill="#546d79"/><path d="m3.75 9v10.5c0 .414.336.75.75.75s.75-.336.75-.75v-10.5z" fill="#607d8b"/><path d="m20.25 15v-10.5c0-.414-.336-.75-.75-.75s-.75.336-.75.75v10.5z" fill="#607d8b"/><g fill="#546d79"><path d="m5.25 12h-1.5v7.5c0 .414.336.75.75.75s.75-.336.75-.75z"/><path d="m20.25 12h-1.5v3h1.5z"/></g></svg>