<?xml version="1.0" encoding="utf-8"?>
<!-- Generator: Adobe Illustrator 25.2.1, SVG Export Plug-In . SVG Version: 6.00 Build 0)  -->
<svg version="1.1" id="Capa_1" xmlns="http://www.w3.org/2000/svg" xmlns:xlink="http://www.w3.org/1999/xlink" x="0px" y="0px"
	 viewBox="0 0 512 512" style="enable-background:new 0 0 512 512;" xml:space="preserve">
<style type="text/css">
	.st0{fill:#1F84FF;}
	.st1{fill:#FF9A1F;}
	.st2{fill:#FFFFFF;}
	.st3{fill:#1D2C3E;}
</style>
<g>
	<path class="st0" d="M426.3,157.9H256H85.7L10,273.9h246h246L426.3,157.9z"/>
	<path class="st1" d="M318.9,210.5v59.8H193.1v-59.8l62.9-64.6L318.9,210.5z"/>
	<path class="st2" d="M236,221.9h40v52h-40V221.9z"/>
	<path class="st2" d="M30,273.9h452V502H30V273.9z"/>
	<path class="st0" d="M349,347.9h88v88h-88V347.9z"/>
	<path class="st0" d="M163,435.9H75v-88h88V435.9z"/>
	<path class="st1" d="M256,337.9c-26.5,0-48,21.5-48,48V502h96V385.9C304,359.4,282.5,337.9,256,337.9z"/>
	<g>
		<path class="st3" d="M492,460.1V283.9h10c3.7,0,7-2,8.8-5.2c1.7-3.2,1.6-7.2-0.4-10.2l-75.7-116c-1.8-2.8-5-4.5-8.4-4.5H272.1
			l-9.1-9.1c-1.9-1.9-4.4-2.9-7.1-2.9s-5.2,1.1-7.1,2.9l-9.1,9.1H85.7c-3.4,0-6.5,1.7-8.4,4.5l-75.7,116c-2,3.1-2.2,7-0.4,10.2
			c1.7,3.2,5.1,5.2,8.8,5.2h10V502c0,5.5,4.5,10,10,10h452c5.5,0,10-4.5,10-10v-69c0-5.5-4.5-10-10-10s-10,4.5-10,10v59H314V385.9
			c0-32-26-58-58-58s-58,26-58,58V492H40V283.9h432v176.2 M218,431.7h8.5c5.5,0,10-4.5,10-10s-4.5-10-10-10H218v-25.8
			c0-21,17-38,38-38s38,17,38,38V492h-76V431.7z M308.9,212.9v51H286v-42c0-5.5-4.5-10-10-10h-40c-5.5,0-10,4.5-10,10v42h-22.9v-51
			L256,160L308.9,212.9z M28.5,263.9l62.7-96h128.7l-47.9,47.9c-3.9,3.9-3.9,10.2,0,14.1c3,3,7.5,3.7,11.2,2v31.9H28.5z M246,263.9
			v-32h20v32H246z M328.9,263.9V232c1.3,0.6,2.7,0.9,4.1,0.9c2.6,0,5.1-1,7.1-2.9c3.9-3.9,3.9-10.2,0-14.1l-47.9-47.9h128.7l62.7,96
			L328.9,263.9L328.9,263.9z"/>
		<path class="st3" d="M349,337.9c-5.5,0-10,4.5-10,10v88c0,5.5,4.5,10,10,10h88c5.5,0,10-4.5,10-10v-88c0-5.5-4.5-10-10-10H349z
			 M427,383.9h-24v-26h24V383.9z M383,357.9v26h-24v-26H383z M359,403.9h24v22h-24V403.9z M403,425.9v-22h24v22H403z"/>
		<path class="st3" d="M75,337.9c-5.5,0-10,4.5-10,10v88c0,5.5,4.5,10,10,10h88c5.5,0,10-4.5,10-10v-88c0-5.5-4.5-10-10-10H75z
			 M153,383.9h-24v-26h24V383.9z M109,357.9v26H85v-26H109z M85,403.9h24v22H85V403.9z M129,425.9v-22h24v22H129z"/>
		<path class="st3" d="M206.5,100.5c-3.9,3.9-3.9,10.2,0,14.1c3.9,3.9,10.2,3.9,14.1,0c19.5-19.5,51.2-19.5,70.7,0
			c2,2,4.5,2.9,7.1,2.9s5.1-1,7.1-2.9c3.9-3.9,3.9-10.2,0-14.1C278.2,73.2,233.8,73.2,206.5,100.5L206.5,100.5z"/>
		<path class="st3" d="M326.7,89.3c2.6,0,5.1-1,7.1-2.9c3.9-3.9,3.9-10.2,0-14.1C313,51.4,285.4,40,256,40s-57,11.4-77.8,32.2
			c-3.9,3.9-3.9,10.2,0,14.1c3.9,3.9,10.2,3.9,14.1,0C209.4,69.3,232,60,256,60s46.6,9.4,63.6,26.4
			C321.6,88.3,324.2,89.3,326.7,89.3z"/>
		<path class="st3" d="M164.1,58.1c50.7-50.7,133.2-50.7,183.9,0c2,2,4.5,2.9,7.1,2.9s5.1-1,7.1-2.9c3.9-3.9,3.9-10.2,0-14.1
			c-58.5-58.5-153.7-58.5-212.2,0c-3.9,3.9-3.9,10.2,0,14.1C153.8,62,160.1,62,164.1,58.1L164.1,58.1z"/>
	</g>
</g>
</svg>
