<svg id="Capa_1" enable-background="new 0 0 512 512" height="512" viewBox="0 0 512 512" width="512" xmlns="http://www.w3.org/2000/svg"><circle cx="256" cy="256" fill="#00c8c8" r="256"/><path d="m512 256c0-1.783-.019-3.562-.055-5.336l-95.544-95.544-11.776 14.885-70.021-70.021-128.414 8.897-139.18 141.119 83.838 83.838-48.271 57.255 118.552 118.552c11.402 1.553 23.043 2.355 34.871 2.355 141.385 0 256-114.615 256-256z" fill="#00a0aa"/><path d="m307.971 187.468h-103.942c-18.072 0-32.775-14.703-32.775-32.776v-35.642c0-18.073 14.703-32.776 32.775-32.776h103.941c18.072 0 32.775 14.703 32.775 32.776v35.642c.001 18.073-14.702 32.776-32.774 32.776zm-103.942-71.194c-1.53 0-2.775 1.245-2.775 2.776v35.642c0 1.531 1.245 2.776 2.775 2.776h103.941c1.53 0 2.775-1.245 2.775-2.776v-35.642c0-1.531-1.245-2.776-2.775-2.776z" fill="#ffce00"/><path d="m307.971 86.274h-52.375v30h52.375c1.53 0 2.775 1.245 2.775 2.776v35.642c0 1.531-1.245 2.776-2.775 2.776h-52.375v30h52.375c18.072 0 32.775-14.703 32.775-32.776v-35.642c0-18.072-14.703-32.776-32.775-32.776z" fill="#fdba12"/><path d="m88.638 169.367-11.717 48.975c-1.053 4.4-1.277 8.958-.661 13.44l14.743 137.33c2.478 18.043 17.895 31.487 36.108 31.487h257.778c18.212 0 33.629-13.444 36.108-31.487l14.743-137.33c.616-4.482.391-9.04-.661-13.44l-11.717-48.975c-3.923-16.4-18.584-27.967-35.447-27.967h-263.83c-16.863.001-31.524 11.568-35.447 27.967z" fill="#636978"/><path d="m435.079 218.342-11.717-48.975c-3.923-16.4-18.584-27.967-35.447-27.967h-132.32v259.198h129.293c18.212 0 33.629-13.444 36.108-31.487l14.743-137.33c.616-4.481.392-9.039-.66-13.439z" fill="#414952"/><path d="m67.009 206.269h377.981v43.731h-377.981z" fill="#7e8596"/><path d="m255.595 206.269h189.395v43.731h-189.395z" fill="#636978"/><path d="m156.331 262h-21.151c-10.727 0-19.423-8.696-19.423-19.423v-31.885c0-10.727 8.696-19.423 19.423-19.423h21.151c10.727 0 19.423 8.696 19.423 19.423v31.885c0 10.727-8.696 19.423-19.423 19.423z" fill="#ffce00"/><path d="m376.82 262h-21.151c-10.727 0-19.423-8.696-19.423-19.423v-31.885c0-10.727 8.696-19.423 19.423-19.423h21.151c10.727 0 19.423 8.696 19.423 19.423v31.885c0 10.727-8.696 19.423-19.423 19.423z" fill="#fdba12"/></svg>