<svg id="Layer_1" enable-background="new 0 0 512 512" height="512" viewBox="0 0 512 512" width="512" xmlns="http://www.w3.org/2000/svg"><g><g><g><g><g><g id="XMLID_1214_"><g id="XMLID_1215_"><g id="XMLID_1216_"><g id="XMLID_1277_"><g id="XMLID_1278_"><g id="XMLID_1279_"><g id="XMLID_1280_"><g id="XMLID_1286_"><g id="XMLID_1287_"><g id="XMLID_1288_"><g id="XMLID_1289_"><g id="XMLID_1290_"><g id="XMLID_1291_"><g id="XMLID_1292_"><g id="XMLID_1293_"><circle cx="256" cy="256" fill="#ff7d47" r="256"/></g></g></g></g></g></g></g></g></g></g></g></g></g></g></g></g></g></g></g><path d="m512 256c0-10.275-.624-20.404-1.8-30.362l-128.917-128.917-316.69 52.817 81.466 79.049 8.611 190.761 93.092 92.506c2.736.086 5.48.146 8.238.146 141.385 0 256-114.615 256-256z" fill="#ff4a4a"/><g><g><g><path d="m233.074 149.538h-168.481v-9.845c0-30.617 8.826-55.762 38.736-58.493 1.778-.167 3.585-.246 5.412-.246l32.735 7.759c25.891 6.137 49.594 19.281 68.512 37.992z" fill="#e0e0e0"/><path d="m391.202 372.307-.001-232.613c0-30.617-8.29-55.762-38.199-58.493 1.778-.167 3.585-.246 5.412-.246h-249.673c-1.827 0-3.634.079-5.412.246 29.91 2.731 38.2 27.876 38.2 58.493l.001 232.613c0 30.617 8.29 55.762 38.2 58.493-1.778.167-3.585.246-5.412.246h225.937c1.827 0 3.634-.079 5.412-.246-29.911-2.731-14.465-27.876-14.465-58.493z" fill="#fff"/><path d="m405.67 430.8c-1.78.17-3.59.25-5.42.25h-144.25v-350.1h102.41c-1.82 0-3.63.08-5.41.25 29.91 2.73 38.2 27.88 38.2 58.49v232.62c0 30.61-15.44 55.76 14.47 58.49z" fill="#e0e0e0"/><g><ellipse cx="303.144" cy="355.09" fill="#f79b14" rx="34.069" ry="34.069" transform="matrix(.973 -.23 .23 .973 -73.474 79.147)"/><path d="m337.211 355.088c0 18.82-15.253 34.074-34.068 34.074v-68.142c18.815 0 34.068 15.253 34.068 34.068z" fill="#db7607"/></g><g><path d="m238.408 362.462v9.845c0 30.617-11.832 55.762-41.742 58.493-1.778.167-3.585.246-5.412.246h208.999c1.827 0 3.634-.078 5.412-.246 29.91-2.731 41.742-27.876 41.742-58.493v-9.845z" fill="#e0e0e0"/></g></g><g><path d="m200.938 134.115h136.275v30h-136.275z" fill="#606060"/></g><g><path d="m256 134.11h81.21v30h-81.21z" fill="#383838"/></g><g><path d="m200.938 194.343h136.275v30h-136.275z" fill="#606060"/></g><g><path d="m256 194.34h81.21v30h-81.21z" fill="#383838"/></g><g><path d="m200.938 254.57h136.275v30h-136.275z" fill="#606060"/></g><g><path d="m256 254.57h81.21v30h-81.21z" fill="#383838"/></g></g><g><g><path d="m447.41 362.46v9.85c0 30.61-11.83 55.76-41.74 58.49-1.78.17-3.59.25-5.42.25h-144.25v-68.59z" fill="#bfbfbf"/></g></g></g></g></svg>