<?xml version="1.0" encoding="utf-8"?>
<!-- Generator: Adobe Illustrator 25.2.1, SVG Export Plug-In . SVG Version: 6.00 Build 0)  -->
<svg version="1.1" id="Capa_1" xmlns="http://www.w3.org/2000/svg" xmlns:xlink="http://www.w3.org/1999/xlink" x="0px" y="0px"
	 viewBox="0 0 512 512" style="enable-background:new 0 0 512 512;" xml:space="preserve">
<style type="text/css">
	.st0{fill:#FF9A1F;}
	.st1{fill:#1F84FF;}
	.st2{fill:#FFFFFF;}
	.st3{fill:#1D2C3E;}
</style>
<path class="st0" d="M456,439v63h-60V344.8C431.3,361.1,456,398,456,439z"/>
<path class="st1" d="M376,133c11,0,20,8.9,20,20c0,5.5-2.2,10.5-5.9,14.1s-8.6,5.9-14.1,5.9h-10h-10H156h-10h-10
	c-11.1,0-20-8.9-20-20c0-5.5,2.2-10.5,5.9-14.1s8.6-5.9,14.1-5.9H376z"/>
<path class="st0" d="M216,35v-2c0-11,8.9-23,20-23h40c11,0,20,12,20,23v2c45.6,9.3,80,49.6,80,98H136C136,84.6,170.4,44.3,216,35z"
	/>
<path class="st1" d="M356,336h-40l-60,63l-60-63h-40c-14.2,0,6.1,3.2-6.2,8.8V502h6.2h100h100h-0.6V344.8
	C343.1,339.2,370.2,336,356,336z"/>
<path class="st2" d="M366,173h-10H156h-10c-16.6,0-30,13.4-30,30s13.4,30,30,30h12c3.9,19.9,13.7,38,27.3,52.2
	c3.5,3.6,7.3,7,11.2,10.1L196,296v40l60,63l60-63v-40l-0.5-0.7C335,280.2,349,258,354,233h12c16.6,0,30-13.4,30-30
	S382.6,173,366,173z"/>
<path class="st0" d="M116,344.8V502H56v-63C56,398,80.7,361.1,116,344.8z"/>
<path class="st3" d="M447.6,377.2c-11.3-17.4-26.7-31.3-44.8-40.2c-1.5-1.4-3.5-2.4-5.7-2.6c-13.1-5.6-26.9-8.4-41.1-8.4h-30v-26.4
	c17.4-14.9,29.8-34.6,35.9-56.6h4.1c22.1,0,40-17.9,40-40c0-10.5-4-20-10.6-27.1c0.6-0.5,1.2-1.1,1.8-1.7c5.7-5.7,8.8-13.2,8.8-21.2
	c0-13.2-8.5-24.4-20.3-28.4c-3.5-46-35.8-85.3-80.2-97.6c-2.6-13.8-14-27-29.4-27h-40c-15.4,0-26.8,13.3-29.4,27
	c-44.4,12.3-76.7,51.6-80.2,97.6c-4.3,1.5-8.2,3.9-11.6,7.2c-5.7,5.7-8.8,13.2-8.8,21.2c0,9.2,4.1,17.4,10.6,22.9
	C110,183,106,192.5,106,203c0,22.1,17.9,40,40,40h4.1c5.1,18.4,14.6,35.2,28,49.1c2.5,2.6,5.2,5.1,7.9,7.5V326h-30
	c-14.2,0-28,2.8-41.1,8.4c-2.2,0.2-4.2,1.2-5.7,2.6c-18.1,8.9-33.6,22.8-44.8,40.2c-12,18.6-18.4,40-18.4,61.8v63
	c0,5.5,4.5,10,10,10h400c5.5,0,10-4.5,10-10v-63C466,417.2,459.7,395.8,447.6,377.2z M346,415.4V492h-80v-89l54.3-57H346v99.1
	c0,5.5,4.5,10,10,10s10-4.5,10-10v-98.5c6.8,0.8,13.5,2.4,20,4.9V492h-20v-76.6 M206,313.4c15.4,8.3,32.4,12.6,50,12.6
	c17.6,0,34.6-4.3,50-12.6V332l-50,52.5L206,332V313.4z M366,223h-0.5c0.3-3.3,0.5-6.7,0.5-10v-30c11,0,20,9,20,20S377,223,366,223z
	 M206,48.1V93c0,5.5,4.5,10,10,10s10-4.5,10-10V35.1c0,0,0-0.1,0-0.1v-2c0-6.2,5.2-13,10-13h40c4.8,0,10,6.8,10,13v2
	c0,0,0,0.1,0,0.1V93c0,5.5,4.5,10,10,10s10-4.5,10-10V48.1c32.3,11.4,55.6,40.6,59.4,74.9H146.6C150.4,88.8,173.7,59.6,206,48.1z
	 M128.9,145.9c1.9-1.9,4.4-2.9,7.1-2.9h240c5.5,0,10,4.5,10,10c0,2.7-1,5.2-2.9,7.1c-1.9,1.9-4.4,2.9-7.1,2.9h-10h-10H156h-10h-10
	c-5.5,0-10-4.5-10-10C126,150.3,127,147.8,128.9,145.9z M126,203c0-11,9-20,20-20v30c0,3.3,0.2,6.7,0.5,10H146
	C135,223,126,214,126,203z M167.8,231.2c0-0.1,0-0.2-0.1-0.3C166.6,225,166,219,166,213v-30h180v30c0,6-0.6,12-1.8,17.9
	c0,0.1,0,0.2-0.1,0.3c-4.5,22.3-16.8,42.3-34.8,56.2C293.7,299.6,275.2,306,256,306s-37.7-6.4-53.4-18.6c-3.6-2.8-7-5.8-10.1-9.1
	C179.9,265.1,171.4,248.9,167.8,231.2z M146,408.7V492h-20V351.5c6.5-2.4,13.2-4.1,20-4.9v98.5c0,5.5,4.5,10,10,10s10-4.5,10-10V346
	h25.7l54.3,57v89h-80v-83.3 M66,439c0-30.4,15.6-59.6,40-76.9V492H66V439z M446,492h-40V362.1c24.4,17.3,40,46.5,40,76.9V492z"/>
</svg>
