<svg id="Layer_1" enable-background="new 0 0 64 64" height="512" viewBox="0 0 64 64" width="512" xmlns="http://www.w3.org/2000/svg"><g><path d="m16 33h-10c-.553 0-1 .448-1 1v4c0 .552.447 1 1 1h12c.553 0 1-.448 1-1v-2c0-1.654-1.346-3-3-3z" fill="#7fc6f0"/><path d="m58 43h-52c-.553 0-1 .448-1 1v4c0 .552.447 1 1 1h52c.553 0 1-.448 1-1v-4c0-.552-.447-1-1-1z" fill="#d7d7d9"/><path d="m57 58h-50c-.553 0-1-.448-1-1s.447-1 1-1h50c.553 0 1 .448 1 1s-.447 1-1 1z" fill="#d7d7d9"/><path d="m24 37h-18c-.553 0-1 .448-1 1v6c0 .552.447 1 1 1h18c.553 0 1-.448 1-1v-6c0-.552-.447-1-1-1z" fill="#fff"/><path d="m4 25c-1.654 0-3 1.346-3 3v26.779c0 .395.232.753.594.914.358.161.783.094 1.076-.171.746-.673 1.914-.673 2.66 0 .188.168.428.257.67.257.138 0 .276-.028.406-.086.362-.161.594-.519.594-.914v-26.779c0-1.654-1.346-3-3-3z" fill="#d7d7d9"/><circle cx="4" cy="57" fill="#7fc6f0" r="4"/><path d="m58 33h-32c-1.657 0-3 1.343-3 3v9h35c.552 0 1-.448 1-1v-10c0-.552-.448-1-1-1z" fill="#7fc6f0"/><circle cx="32" cy="16" fill="#ff3d62" r="13"/><path d="m38 13h-3v-3c0-.552-.447-1-1-1h-4c-.553 0-1 .448-1 1v3h-3c-.553 0-1 .448-1 1v4c0 .552.447 1 1 1h3v3c0 .552.447 1 1 1h4c.553 0 1-.448 1-1v-3h3c.553 0 1-.448 1-1v-4c0-.552-.447-1-1-1z" fill="#fff"/><path d="m60 29c-1.654 0-3 1.346-3 3v22.779c0 .395.232.753.594.914.359.161.782.094 1.076-.171.746-.673 1.914-.673 2.66 0 .188.169.428.257.67.257.138 0 .276-.028.406-.086.362-.161.594-.519.594-.914v-22.779c0-1.654-1.346-3-3-3z" fill="#d7d7d9"/><circle cx="60" cy="57" fill="#7fc6f0" r="4"/></g></svg>