<?xml version="1.0" encoding="utf-8"?>
<!-- Generator: Adobe Illustrator 25.2.1, SVG Export Plug-In . SVG Version: 6.00 Build 0)  -->
<svg version="1.1" id="Layer_1" xmlns="http://www.w3.org/2000/svg" xmlns:xlink="http://www.w3.org/1999/xlink" x="0px" y="0px"
	 viewBox="0 0 512 512" style="enable-background:new 0 0 512 512;" xml:space="preserve">
<style type="text/css">
	.st0{fill:#FFFFFF;}
	.st1{fill:#1F84FF;}
	.st2{fill:#FF9A1F;}
	.st3{fill:#ECECF1;}
	.st4{fill:#1D2C3E;}
</style>
<path class="st0" d="M452,122c-27.6,0-50,22.4-50,50v280h100V172C502,144.4,479.6,122,452,122z"/>
<path class="st0" d="M60,122c-27.6,0-50,22.4-50,50v280h100c0-10.5,0-266.3,0-280C110,144.4,87.6,122,60,122z"/>
<path class="st1" d="M260,322h142c0-54.9,0-108.5,0-120H134C134,202,225.4,289.1,260,322z"/>
<path class="st1" d="M110,262v190c0-27.6-22.4-50-50-50s-50,22.4-50,50c0,29.1,25.2,50,52.9,50H110l126-120L110,262z"/>
<path class="st2" d="M465.3,403.7C432,395.1,402,420.1,402,452c0-7.8,0-35.6,0-70h-86L196,502h256c27.6,0,50-22.4,50-50
	C502,427.9,485.7,409,465.3,403.7z"/>
<path class="st0" d="M402,322v60h-86L196,502h-86l126-120L110,262v-60h24c0,0,91.4,87.1,126,120H402z"/>
<path class="st2" d="M256,10c49.7,0,90,40.3,90,90c0,24.5-21.8,66.1-44,102c-22.8,37-46,68-46,68s-23.2-31-46-68
	c-22.2-35.9-44-77.5-44-102C166,50.3,206.3,10,256,10z"/>
<path class="st3" d="M256,60c22.1,0,40,17.9,40,40s-17.9,40-40,40s-40-17.9-40-40S233.9,60,256,60z"/>
<path class="st4" d="M20,317.6V172c0-22.1,17.9-40,40-40c22.1,0,40,17.9,40,40v235.3C89.4,397.8,75.4,392,60,392
	c-15.4,0-29.4,5.8-40,15.3V308c0-5.5-4.5-10-10-10s-10,4.5-10,10v144c0,34.3,29.6,60,62.9,60H452c33.1,0,60-26.9,60-60V172
	c0-33.1-26.9-60-60-60c-33.1,0-60,26.8-60,60v20h-72.3c24.1-41.2,36.3-72.1,36.3-92C356,44.9,311.1,0,256,0S156,44.9,156,100
	c0,19.9,12.2,50.8,36.3,92c-8.1,0-65.3,0-72.3,0v-20c0-33.1-26.9-60-60-60c-33.1,0-60,26.8-60,60v145.6 M412,172
	c0-22.1,17.9-40,40-40c22.1,0,40,17.9,40,40v235c-6.9-6.1-15.2-10.7-24.2-13c-20-5.2-40.7-0.3-55.8,13.2C412,398.7,412,184,412,172z
	 M392,312H264c-33.5-31.9-97.5-92.9-105-100h45.4c21.8,34.9,43.3,63.7,43.6,64c1.9,2.5,4.9,4,8,4s6.1-1.5,8-4
	c0.2-0.3,21.7-29.1,43.6-64H392V312z M256,20c44.1,0,80,35.9,80,80c0,37.1-58.6,123-80,153c-21.8-30.5-80-116.2-80-153
	C176,55.9,211.9,20,256,20z M20,452c0-22.1,17.9-40,40-40s40,17.9,40,40c0,5.5,4.5,10,10,10s10-4.5,10-10V285.3L221.5,382L106,492
	H62.9C40.4,492,20,475.2,20,452z M242.9,389.2c2-1.9,3.1-4.5,3.1-7.2s-1.1-5.4-3.1-7.2L120,257.7V212h10
	c0.7,0.7,118.3,112.7,123.1,117.2c1.9,1.8,4.3,2.8,6.9,2.8h132v40h-76c-2.7,0-5.2,1.1-7.1,2.9L191.9,492H135L242.9,389.2z M452,492
	H220.1l100-100H392v60c0,5.5,4.5,10,10,10s10-4.5,10-10c0-25.9,24.2-45.5,50.8-38.6c16.2,4.2,29.2,19.2,29.2,38.6
	C492,474.1,474.1,492,452,492z"/>
<path class="st4" d="M256,150c27.6,0,50-22.4,50-50s-22.4-50-50-50s-50,22.4-50,50S228.4,150,256,150z M256,70c16.5,0,30,13.5,30,30
	s-13.5,30-30,30s-30-13.5-30-30S239.5,70,256,70z"/>
</svg>
