<svg id="Capa_1" enable-background="new 0 0 512 512" height="512" viewBox="0 0 512 512" width="512" xmlns="http://www.w3.org/2000/svg"><circle cx="256" cy="256" fill="#ffce00" r="256"/><path d="m512 256c0-4.143-.098-8.264-.293-12.359l-123.669-123.668-92.211 56.806-64.537-64.537-80.324 86.683 260.489 260.489c61.123-46.785 100.545-120.496 100.545-203.414z" fill="#ffa300"/><path d="m256 285.5c-90.679 0-175.238 14.542-246.541 39.651 30.172 107.79 129.119 186.849 246.541 186.849s216.369-79.059 246.541-186.849c-71.303-25.109-155.862-39.651-246.541-39.651z" fill="#b46e5a"/><path d="m502.541 325.151c-71.252-25.091-155.744-39.63-246.35-39.65v226.497c117.337-.086 216.195-79.116 246.35-186.847z" fill="#915041"/><path d="m338.736 119.973c-44.056 0-79.831 34.431-82.356 77.854l-.189.008-.191-26.625c0-45.694-37.042-82.736-82.736-82.736h-49.303v49.303c0 45.694 37.042 82.736 82.736 82.736h23.474v149.711c0 14.265 11.564 25.828 25.828 25.828 14.265 0 25.828-11.564 25.828-25.828v-118.213h23.474c45.694 0 82.735-37.042 82.735-82.735v-49.303z" fill="#93d632"/><path d="m338.736 119.973c-43.908 0-79.805 34.21-82.545 77.426v198.649c14.177-.103 25.638-11.623 25.638-25.824v-118.213h23.474c45.694 0 82.736-37.042 82.736-82.736v-49.303h-49.303z" fill="#78b22a"/></svg>