<?xml version="1.0" encoding="utf-8"?>
<!-- Generator: Adobe Illustrator 25.2.1, SVG Export Plug-In . SVG Version: 6.00 Build 0)  -->
<svg version="1.1" id="Capa_1" xmlns="http://www.w3.org/2000/svg" xmlns:xlink="http://www.w3.org/1999/xlink" x="0px" y="0px"
	 viewBox="0 0 512 512" style="enable-background:new 0 0 512 512;" xml:space="preserve">
<style type="text/css">
	.st0{fill:#1F84FF;}
	.st1{fill:#FF9A1F;}
	.st2{fill:#1D2C3E;}
</style>
<circle class="st0" cx="256" cy="256" r="64"/>
<circle class="st1" cx="438" cy="438" r="64"/>
<circle class="st0" cx="454" cy="160" r="48"/>
<circle class="st1" cx="58" cy="454" r="48"/>
<ellipse transform="matrix(0.1602 -0.9871 0.9871 0.1602 92.949 356.5284)" class="st0" cx="256" cy="123.6" rx="24" ry="24"/>
<circle class="st1" cx="82" cy="82" r="72"/>
<path class="st2" d="M438,364c-16.8,0-32.3,5.6-44.7,15.1l-78.4-78.4c9.5-12.4,15.1-27.9,15.1-44.7c0-8-1.3-15.7-3.7-23l80.7-39.1
	c10.5,14.6,27.7,24.1,47,24.1c32,0,58-26,58-58s-26-58-58-58s-58,26-58,58c0,5.5,0.8,10.9,2.2,15.9L317.6,215
	c-11.5-17.3-30.1-29.4-51.6-32.3v-26.6c13.9-4.3,24-17.2,24-32.5c0-18.7-15.3-34-34-34c-18.7,0-34,15.3-34,34
	c0,15.3,10.1,28.2,24,32.5v26.6c-12.9,1.8-24.8,6.9-34.7,14.4l-64.6-64.6c15.8-20.2,21.3-47,14.5-72.1c-1.5-5.3-6.9-8.5-12.3-7
	c-5.3,1.5-8.5,6.9-7,12.3c5.8,21.3-0.2,44.3-15.8,60c-0.1,0.1-0.1,0.1-0.2,0.2c-0.1,0.1-0.1,0.1-0.2,0.2c-24.2,24-63.4,24-87.5-0.2
	C14,101.7,14,62.4,38.2,38.2c15.3-15.3,37-21.5,58.1-16.5c5.4,1.3,10.8-2.1,12-7.4c1.3-5.4-2.1-10.8-7.4-12C73-4.3,44.3,3.8,24,24
	c-32,32-32,84,0,116c16,16,37,24,58,24c17.9,0,35.7-5.8,50.5-17.4l64.6,64.6c-9.5,12.4-15.1,27.9-15.1,44.7c0,40.8,33.2,74,74,74
	c16.8,0,32.3-5.6,44.7-15.1l78.4,78.4c-9.5,12.4-15.1,27.9-15.1,44.7c0,40.8,33.2,74,74,74s74-33.2,74-74S478.8,364,438,364z
	 M454,122c21,0,38,17,38,38s-17,38-38,38s-38-17-38-38S433,122,454,122z M256,109.6c7.7,0,14,6.3,14,14s-6.3,14-14,14s-14-6.3-14-14
	S248.3,109.6,256,109.6z M202,256c0-29.8,24.2-54,54-54s54,24.2,54,54s-24.2,54-54,54S202,285.8,202,256z M438,492
	c-29.8,0-54-24.2-54-54s24.2-54,54-54s54,24.2,54,54S467.8,492,438,492z"/>
<path class="st2" d="M202,295.9L91.3,406.6C81.9,399.9,70.4,396,58,396c-32,0-58,26-58,58s26,58,58,58s58-26,58-58
	c0-12.4-3.9-23.9-10.6-33.3L216.1,310c3.9-3.9,3.9-10.2,0-14.1C212.2,292,205.9,292,202,295.9z M58,492c-21,0-38-17-38-38
	s17-38,38-38s38,17,38,38S79,492,58,492z"/>
<path class="st2" d="M8.1,117.4c11.1,23.1,32.6,40,58.1,45c5.4,1.1,10.7-2.5,11.7-7.9c1.1-5.4-2.5-10.7-7.9-11.7
	c-21.7-4.3-39.6-19.9-46.7-40.8c0-0.1,0-0.2-0.1-0.3c0-0.1-0.1-0.1-0.1-0.2c-10.7-32.3,6.7-67.4,39.1-78.3
	c32.4-10.9,67.6,6.6,78.5,39c6.9,20.5,2.8,42.7-11,59.4c-3.5,4.3-2.9,10.6,1.3,14.1c4.3,3.5,10.6,2.9,14.1-1.3
	c18.3-22.1,23.7-51.4,14.6-78.5c-14.4-42.8-61-66-103.9-51.6C34.4,11.5,17.9,26.7,8.6,45.6c-7.9,16-10.7,34.5-6.9,52.9"/>
</svg>
