<svg id="Capa_1" enable-background="new 0 0 512 512" height="512" viewBox="0 0 512 512" width="512" xmlns="http://www.w3.org/2000/svg"><g><circle cx="256" cy="256" fill="#9dcfff" r="256"/><g><g><path d="m512 256c0-.173-.006-.345-.007-.518l-134.092-134.093-85.657 75.045-102.645-102.644-76.054 89.391 58.369 58.369-98.166 66.67 202.945 202.945c131.707-10.537 235.307-120.748 235.307-255.165z" fill="#3ba9ff"/></g></g><g><g><g fill="#5a69e5"><path d="m215.3 208.573h-5.638c-13.219 14.9-32.497 24.308-53.935 24.308s-40.717-9.408-53.935-24.308h-5.638c-15.428 0-27.936 12.507-27.936 27.935v57.457c0 22.461 39.179 40.668 87.509 40.668s87.509-18.207 87.509-40.668v-57.457c0-15.428-12.508-27.935-27.936-27.935z"/><path d="m155.726 205.398c28.255 0 51.159-22.905 51.159-51.159v-22.124c0-28.254-22.904-51.159-51.159-51.159-28.254 0-51.159 22.905-51.159 51.159v22.124c0 28.254 22.905 51.159 51.159 51.159z"/></g></g><g><g fill="#3a4de1"><path d="m215.3 208.573h-5.638c-13.219 14.9-32.497 24.308-53.935 24.308v101.753c48.33 0 87.509-18.208 87.509-40.668v-57.457c0-15.429-12.508-27.936-27.936-27.936z"/><path d="m206.886 154.239v-22.125c0-28.254-22.904-51.159-51.159-51.159v124.443c28.254 0 51.159-22.904 51.159-51.159z"/></g></g><g fill="#ffd300"><path d="m329.915 298.643c-27.896 0-52.981-12.242-70.181-31.63h-7.336c-20.075 0-36.35 16.274-36.35 36.35v74.764c0 29.226 50.98 52.918 113.868 52.918l10-66.902z"/><path d="m329.915 262.882c36.766 0 36.766-161.926 0-161.926-36.765 0-66.569 29.804-66.569 66.569v28.789c0 36.764 29.804 66.568 66.569 66.568z"/></g><g fill="#ff9e00"><path d="m407.433 267.013h-7.336c-17.2 19.388-42.286 31.63-70.181 31.63v132.402c62.888 0 113.868-23.692 113.868-52.918v-74.764c-.001-20.076-16.276-36.35-36.351-36.35z"/><path d="m396.484 196.313v-28.789c0-36.765-29.803-66.569-66.569-66.569v161.926c36.765.001 66.569-29.803 66.569-66.568z"/></g></g></g></svg>