<svg id="svg14514" height="512" viewBox="0 0 16.933333 16.933334" width="512" xmlns="http://www.w3.org/2000/svg" xmlns:svg="http://www.w3.org/2000/svg"><g id="layer1" transform="translate(0 -280.067)"><path id="path16260-1" d="m6.085943 289.59191c-1.900951 0-3.4395909 1.53862-3.439583 3.43958v3.17345a.26460982.26460982 0 0 0 .2635491.26561h11.1135339a.26460982.26460982 0 0 0 .263549-.26561v-3.17345c.000005-1.90096-1.538626-3.4396-3.439583-3.43958z" fill="#33b9ef" font-variant-ligatures="normal" font-variant-position="normal" font-variant-caps="normal" font-variant-numeric="normal" font-variant-alternates="normal" font-feature-settings="normal" text-indent="0" text-align="start" text-decoration-line="none" text-decoration-style="solid" text-decoration-color="#000000" text-transform="none" text-orientation="mixed" white-space="normal" shape-padding="0" isolation="auto" mix-blend-mode="normal" solid-color="#000000" solid-opacity="1" vector-effect="none"/><path id="path16263-7" d="m2.64636 294.88306v1.32188c-.0005583.14612.11743.26503.2635491.26561h11.1135339c.146119-.00058.264107-.11949.263549-.26561v-1.32188z" fill="#fdd5a6" font-variant-ligatures="normal" font-variant-position="normal" font-variant-caps="normal" font-variant-numeric="normal" font-variant-alternates="normal" font-feature-settings="normal" text-indent="0" text-align="start" text-decoration-line="none" text-decoration-style="solid" text-decoration-color="#000000" text-transform="none" text-orientation="mixed" white-space="normal" shape-padding="0" isolation="auto" mix-blend-mode="normal" solid-color="#000000" solid-opacity="1" vector-effect="none"/><g fill="#fdce97"><path id="path5354" d="m6.879683 288.00311v1.85364c.000013.0704.0281.13793.07803.18758 0 0 .598122.60562 1.509467.60565.911357.00001 1.509985-.60565 1.509985-.60565.04918-.05.0765-.11746.07597-.18758v-1.85364z" font-variant-ligatures="normal" font-variant-position="normal" font-variant-caps="normal" font-variant-numeric="normal" font-variant-alternates="normal" font-feature-settings="normal" text-indent="0" text-align="start" text-decoration-line="none" text-decoration-style="solid" text-decoration-color="#000000" text-transform="none" text-orientation="mixed" white-space="normal" shape-padding="0" isolation="auto" mix-blend-mode="normal" solid-color="#000000" solid-opacity="1" vector-effect="none"/><path id="path16026-2" d="m11.029153 285.35437c-.155681.007-.311973.0588-.445968.15348v1.96681a.26460982.26460982 0 0 0 .000529 0c.65654 0 1.322387-.50818 1.322387-1.3224a.26460982.26460982 0 0 0 0-.01c-.01299-.3909-.302119-.67688-.624767-.76171-.08066-.0212-.166197-.0303-.252181-.0264z" font-variant-ligatures="normal" font-variant-position="normal" font-variant-caps="normal" font-variant-numeric="normal" font-variant-alternates="normal" font-feature-settings="normal" text-indent="0" text-align="start" text-decoration-line="none" text-decoration-style="solid" text-decoration-color="#000000" text-transform="none" text-orientation="mixed" white-space="normal" shape-padding="0" isolation="auto" mix-blend-mode="normal" solid-color="#000000" solid-opacity="1" vector-effect="none"/><path id="path16030-2" d="m5.904401 285.35437c-.08598-.004-.171519.005-.252181.0264-.322649.0848-.611783.37081-.6247679.76171a.26460982.26460982 0 0 0 0 .01c0 .81422.6653309 1.3224 1.3218829 1.3224a.26460982.26460982 0 0 0 .000529 0v-1.96887c-.133713-.0943-.290094-.1443-.44545-.15142z" font-variant-ligatures="normal" font-variant-position="normal" font-variant-caps="normal" font-variant-numeric="normal" font-variant-alternates="normal" font-feature-settings="normal" text-indent="0" text-align="start" text-decoration-line="none" text-decoration-style="solid" text-decoration-color="#000000" text-transform="none" text-orientation="mixed" white-space="normal" shape-padding="0" isolation="auto" mix-blend-mode="normal" solid-color="#000000" solid-opacity="1" vector-effect="none"/></g><path id="path16017-8" d="m6.085785 285.09392v1.5875c0 1.31464 1.066101 2.38125 2.380734 2.38125 1.314641 0 2.380733-1.06661 2.380733-2.38125v-1.5875z" fill="#fdd5a6" font-variant-ligatures="normal" font-variant-position="normal" font-variant-caps="normal" font-variant-numeric="normal" font-variant-alternates="normal" font-feature-settings="normal" text-indent="0" text-align="start" text-decoration-line="none" text-decoration-style="solid" text-decoration-color="#000000" text-transform="none" text-orientation="mixed" white-space="normal" shape-padding="0" isolation="auto" mix-blend-mode="normal" solid-color="#000000" solid-opacity="1" vector-effect="none"/><path id="path16045-6" d="m8.466649 281.12492c-1.607795 0-2.910157 1.30236-2.910157 2.91015-.000397 0 5.820313 0 5.820313 0 0-1.60779-1.302362-2.91015-2.910156-2.91015z" fill="#ffbc42" font-variant-ligatures="normal" font-variant-position="normal" font-variant-caps="normal" font-variant-numeric="normal" font-variant-alternates="normal" font-feature-settings="normal" text-indent="0" text-align="start" text-decoration-line="none" text-decoration-style="solid" text-decoration-color="#000000" text-transform="none" text-orientation="mixed" white-space="normal" shape-padding="0" isolation="auto" mix-blend-mode="normal" solid-color="#000000" solid-opacity="1" vector-effect="none"/><path id="path16041-8" d="m5.820164 285.35734c-.4351612 0-.7929681-.35781-.7929681-.79297s.3578069-.79297.7929681-.79297h5.292969c.435161 0 .792969.35781.792969.79297s-.357808.79297-.792969.79297z" fill="#e8ab3c" font-variant-ligatures="normal" font-variant-position="normal" font-variant-caps="normal" font-variant-numeric="normal" font-variant-alternates="normal" font-feature-settings="normal" text-indent="0" text-align="start" text-decoration-line="none" text-decoration-style="solid" text-decoration-color="#000000" text-transform="none" text-orientation="mixed" white-space="normal" shape-padding="0" isolation="auto" mix-blend-mode="normal" solid-color="#000000" solid-opacity="1" vector-effect="none"/><path id="path16049-37" d="m8.201024 280.59563c-.218781 0-.421644.0842-.574219.22851-.152575.14428-.254753.3699-.214844.60938l.263672 1.58593a.26460982.26460982 0 0 0 .261719.22266h1.058594a.26460982.26460982 0 0 0 .259765-.22266l.263672-1.57812c.04852-.24262-.05678-.47274-.210937-.61719-.154155-.14445-.358832-.22851-.578125-.22851z" fill="#e8ab3c" font-variant-ligatures="normal" font-variant-position="normal" font-variant-caps="normal" font-variant-numeric="normal" font-variant-alternates="normal" font-feature-settings="normal" text-indent="0" text-align="start" text-decoration-line="none" text-decoration-style="solid" text-decoration-color="#000000" text-transform="none" text-orientation="mixed" white-space="normal" shape-padding="0" isolation="auto" mix-blend-mode="normal" solid-color="#000000" solid-opacity="1" vector-effect="none"/><path id="rect5359" d="m6.085417 289.59165c-.273751 0-.538538.0353-.7937499.0956v2.81481h1.3229169v-2.91041zm4.233334 0v2.91041h1.322916v-2.81481c-.255508-.0605-.520681-.0956-.794784-.0956z" fill="#2f5c7e"/><path id="path5377" d="m5.562968 292.23748c-.092895.00027-.1788026.0494-.2263429.12919l-.8009837 1.32809c-.024553.0413-.037412.0884-.037208.13642v2.63938h7.9374996v-2.63938c-.000264-.0482-.01365-.0953-.03876-.13642l-.798917-1.32809c-.04764-.08-.133781-.12902-.226859-.12919z" fill="#33658a" font-variant-ligatures="normal" font-variant-position="normal" font-variant-caps="normal" font-variant-numeric="normal" font-variant-alternates="normal" font-feature-settings="normal" text-indent="0" text-align="start" text-decoration-line="none" text-decoration-style="solid" text-decoration-color="#000000" text-transform="none" text-orientation="mixed" white-space="normal" shape-padding="0" isolation="auto" mix-blend-mode="normal" solid-color="#000000" solid-opacity="1" vector-effect="none"/><path id="path5384" d="m6.879683 294.35466c-.43516 0-.7953.35809-.7953.79324v1.32266h4.76405v-1.32266c0-.43515-.360137-.79324-.7953-.79324z" fill="#2f5c7e" font-variant-ligatures="normal" font-variant-position="normal" font-variant-caps="normal" font-variant-numeric="normal" font-variant-alternates="normal" font-feature-settings="normal" text-indent="0" text-align="start" text-decoration-line="none" text-decoration-style="solid" text-decoration-color="#000000" text-transform="none" text-orientation="mixed" white-space="normal" shape-padding="0" isolation="auto" mix-blend-mode="normal" solid-color="#000000" solid-opacity="1" vector-effect="none"/></g></svg>